<?xml version="1.0" encoding="UTF-8" standalone="no"?><svg xmlns="http://www.w3.org/2000/svg" xmlns:xlink="http://www.w3.org/1999/xlink" width="1281" height="359" fill="none" viewBox="0 0 1281 359">
  <mask id="a" width="1281" height="359" x="0" y="0" maskUnits="userSpaceOnUse" style="mask-type:alpha">
    <rect width="1281" height="359" fill="#D9D9D9" rx="16"/>
  </mask>
  <g mask="url(#a)">
    <g clip-path="url(#b)">
      <path fill="#fff" d="M601 165.25 826.6 35l273.858 474.337-225.6 130.25z"/>
      <path fill="#000" d="m823.218 454.558-5.627-2.212 2.365 4.095-2.43 1.403-7.414-12.842 2.43-1.403 4.218 7.306.873-5.941 3.158-1.824-1.448 7.269 7.034 2.325-3.159 1.824Zm10.484-12.74c.201.347.358.672.472.977l-7.028 4.058c.458.66 1.015 1.064 1.67 1.21.656.146 1.296.039 1.92-.322.903-.521 1.321-1.279 1.255-2.274l2.621-1.513c.256 1.085.165 2.156-.274 3.212-.446 1.044-1.242 1.897-2.387 2.558-.926.535-1.876.813-2.85.836a5.172 5.172 0 0 1-2.73-.761c-.839-.518-1.543-1.269-2.11-2.252-.575-.995-.877-1.986-.906-2.972a4.898 4.898 0 0 1 .699-2.717c.495-.826 1.217-1.512 2.166-2.06.914-.528 1.843-.802 2.787-.823a4.701 4.701 0 0 1 2.655.712c.819.483 1.499 1.194 2.04 2.131Zm-2.917.758c-.372-.618-.885-.985-1.538-1.101-.66-.128-1.308-.009-1.945.359-.601.347-1.003.826-1.206 1.437-.198.592-.156 1.239.125 1.94l4.564-2.635Zm13.628-6.942c.2.347.358.673.472.977l-7.029 4.058c.459.661 1.016 1.064 1.671 1.21.655.147 1.295.039 1.92-.321.902-.521 1.321-1.28 1.255-2.275l2.62-1.513a5.1 5.1 0 0 1-.274 3.212c-.446 1.045-1.242 1.897-2.387 2.559-.925.534-1.875.812-2.85.835a5.163 5.163 0 0 1-2.73-.761c-.839-.518-1.542-1.269-2.11-2.252-.574-.995-.876-1.986-.905-2.971a4.89 4.89 0 0 1 .698-2.718c.496-.825 1.217-1.512 2.166-2.06.914-.527 1.843-.802 2.788-.822a4.692 4.692 0 0 1 2.655.711c.819.484 1.499 1.194 2.04 2.131Zm-2.917.759c-.372-.618-.885-.986-1.539-1.102-.66-.128-1.308-.008-1.944.359-.602.347-1.004.826-1.207 1.437-.197.592-.156 1.239.126 1.941l4.564-2.635Zm5.266-6.396c.059-.62.276-1.232.653-1.835.382-.621.926-1.136 1.631-1.543.822-.474 1.679-.699 2.572-.675.905.017 1.765.292 2.581.824.821.513 1.515 1.261 2.083 2.245.568.983.876 1.97.923 2.961.053.972-.137 1.86-.567 2.664-.419.797-1.039 1.433-1.861 1.907-.705.408-1.414.624-2.124.649a4.649 4.649 0 0 1-1.933-.342l3.436 5.952-2.429 1.403-8.196-14.196 2.43-1.402.801 1.388Zm7.039.448c-.334-.578-.743-1.005-1.226-1.282a2.74 2.74 0 0 0-1.499-.43c-.508 0-.988.131-1.439.391-.44.254-.79.61-1.05 1.069-.254.44-.38.944-.376 1.512.016.562.191 1.132.525 1.711.334.578.74 1.015 1.219 1.309.49.288.993.437 1.508.448.52-.007 1-.138 1.44-.391a2.735 2.735 0 0 0 1.049-1.069c.26-.458.382-.968.366-1.53-.004-.568-.177-1.148-.517-1.738Zm9.607-9.249 2.686 4.651c.187.324.399.518.636.581.242.046.548-.039.918-.252l1.128-.652 1.183 2.048-1.527.882c-2.048 1.182-3.646.778-4.795-1.212l-2.675-4.633-1.146.661-1.152-1.996 1.145-.661-1.372-2.377 2.447-1.413 1.372 2.377 2.152-1.242 1.152 1.996-2.152 1.242Zm6.039-4.157a3.974 3.974 0 0 1 .523-1.899c.342-.583.837-1.062 1.485-1.436l1.473 2.551-.642.371c-.764.441-1.239.954-1.425 1.54-.175.579-.005 1.314.509 2.205l2.766 4.79-2.43 1.402-5.55-9.614 2.429-1.402.862 1.492Zm5.855.992c-.561-.971-.868-1.943-.92-2.916-.041-.979.152-1.861.577-2.647a4.909 4.909 0 0 1 1.888-1.9c.717-.414 1.426-.63 2.125-.648.711-.025 1.355.089 1.933.342l-.792-1.371 2.447-1.413 5.551 9.614-2.447 1.413-.812-1.406c-.052.632-.268 1.258-.65 1.88-.377.603-.924 1.111-1.641 1.525a4.767 4.767 0 0 1-2.582.658c-.9-.036-1.764-.316-2.591-.841-.823-.543-1.518-1.306-2.086-2.29Zm7.586-4.333c-.34-.59-.746-1.027-1.218-1.31a2.74 2.74 0 0 0-1.499-.43 2.826 2.826 0 0 0-1.467.384c-.451.26-.804.611-1.059 1.051-.255.44-.38.945-.376 1.513.009.55.181 1.114.515 1.693.334.578.743 1.02 1.228 1.326a3.08 3.08 0 0 0 1.509.449 2.804 2.804 0 0 0 1.45-.375c.451-.26.81-.614 1.076-1.061.26-.458.385-.963.376-1.513-.016-.561-.194-1.137-.535-1.727Zm4.195-2.422c-.574-.995-.873-1.98-.895-2.954a4.934 4.934 0 0 1 .681-2.707c.477-.831 1.178-1.513 2.104-2.048 1.191-.688 2.349-.955 3.471-.801 1.127.136 2.135.665 3.022 1.588l-2.62 1.513a2.135 2.135 0 0 0-1.273-.561c-.464-.056-.939.056-1.425.336-.694.401-1.097.973-1.208 1.716-.118.731.091 1.559.625 2.485.528.914 1.141 1.509 1.84 1.784.692.264 1.385.195 2.079-.206.984-.567 1.372-1.378 1.165-2.431l2.62-1.513c.335 1.195.287 2.326-.146 3.394-.433 1.067-1.239 1.941-2.419 2.623-.926.534-1.864.806-2.815.815a5.099 5.099 0 0 1-2.685-.763c-.839-.519-1.546-1.275-2.121-2.27Zm19.532-4.867-5.627-2.212 2.364 4.095-2.429 1.403-7.414-12.842 2.429-1.403 4.218 7.306.874-5.941 3.158-1.824-1.449 7.269 7.034 2.325-3.158 1.824Zm12.937-7.261c-.926.534-1.876.813-2.85.835a5.26 5.26 0 0 1-2.765-.741c-.85-.511-1.56-1.258-2.127-2.242-.568-.983-.855-1.975-.861-2.974a5.218 5.218 0 0 1 .785-2.767c.512-.851 1.23-1.543 2.156-2.078.925-.534 1.884-.81 2.877-.828a5.086 5.086 0 0 1 2.772.714c.874.498 1.594 1.239 2.162 2.222.568.984.843 1.981.826 2.994a5.315 5.315 0 0 1-.793 2.795c-.518.839-1.245 1.529-2.182 2.07Zm-1.223-2.117c.44-.254.79-.595 1.052-1.024.266-.447.392-.951.376-1.513-.016-.561-.201-1.149-.555-1.762-.527-.914-1.174-1.474-1.941-1.679a2.683 2.683 0 0 0-2.183.266 2.68 2.68 0 0 0-1.322 1.758c-.183.753-.01 1.586.518 2.5.528.914 1.161 1.49 1.899 1.727.743.219 1.462.128 2.156-.273Zm7.939-12.127-1.683.972 4.398 7.618-2.464 1.423-4.398-7.618-1.094.631-1.152-1.996 1.093-.631-.28-.486c-.681-1.18-.847-2.241-.497-3.184.351-.943 1.213-1.788 2.587-2.534l1.182 2.047c-.597.329-.951.665-1.062 1.007-.111.342-.01.784.304 1.328l.231.399 1.683-.972 1.152 1.996Zm13.755-10.602 2.223 17.597-2.585 1.493-.683-5.992-9.263-7.147 2.724-1.573 6.359 5.283-1.361-8.168 2.586-1.493Zm11.22 6.549c-.926.534-1.876.813-2.85.835a5.26 5.26 0 0 1-2.765-.74c-.85-.512-1.56-1.259-2.127-2.243-.568-.983-.855-1.974-.861-2.973a5.22 5.22 0 0 1 .785-2.768c.512-.85 1.23-1.543 2.156-2.077.925-.535 1.884-.811 2.877-.828.986-.03 1.91.208 2.772.713.874.498 1.594 1.239 2.162 2.222.568.984.843 1.982.826 2.994a5.312 5.312 0 0 1-.793 2.795c-.518.839-1.245 1.529-2.182 2.07Zm-1.223-2.117c.44-.254.79-.595 1.052-1.024.266-.447.392-.951.376-1.513-.016-.561-.201-1.149-.555-1.762-.527-.914-1.174-1.474-1.941-1.679a2.687 2.687 0 0 0-2.183.266 2.684 2.684 0 0 0-1.322 1.758c-.183.753-.01 1.587.518 2.501.528.914 1.161 1.489 1.899 1.726.743.219 1.462.128 2.156-.273Zm11.455-16.818 5.551 9.614-2.447 1.413-.701-1.215a3.784 3.784 0 0 1-.661 1.701 4.424 4.424 0 0 1-1.431 1.289c-.752.434-1.508.662-2.267.683a4.022 4.022 0 0 1-2.182-.614c-.685-.437-1.274-1.084-1.768-1.94l-3.257-5.64 2.43-1.403 3.056 5.293c.441.763.972 1.243 1.594 1.439.616.185 1.253.087 1.913-.294.671-.388 1.08-.894 1.228-1.519.142-.637-.008-1.337-.449-2.101l-3.056-5.293 2.447-1.413Zm5.688-1.294a3.975 3.975 0 0 1 .524-1.899c.342-.583.837-1.061 1.485-1.435l1.473 2.551-.643.37c-.763.441-1.238.954-1.424 1.54-.175.579-.005 1.314.509 2.205l2.765 4.79-2.429 1.402-5.551-9.614 2.43-1.402.861 1.492Zm-115.845 95.267 2.685 4.651c.187.324.399.518.637.581.242.046.548-.039.918-.252l1.128-.652 1.182 2.048-1.527.882c-2.047 1.182-3.646.778-4.795-1.212l-2.675-4.633-1.145.661-1.152-1.995 1.145-.662-1.373-2.377 2.447-1.413 1.373 2.378 2.152-1.243 1.152 1.996-2.152 1.242Zm6.038-4.157a3.975 3.975 0 0 1 .524-1.899c.342-.583.837-1.061 1.485-1.435l1.473 2.551-.642.37c-.764.441-1.239.954-1.425 1.54-.175.579-.005 1.314.509 2.205l2.765 4.79-2.429 1.402-5.551-9.614 2.43-1.402.861 1.492Zm5.856.993c-.561-.972-.868-1.944-.92-2.917-.041-.979.151-1.861.577-2.647a4.909 4.909 0 0 1 1.888-1.9c.717-.414 1.425-.63 2.125-.648.71-.025 1.355.089 1.932.342l-.791-1.371 2.447-1.413 5.55 9.614-2.447 1.413-.811-1.406c-.052.632-.269 1.258-.65 1.88-.377.603-.924 1.111-1.641 1.526a4.775 4.775 0 0 1-2.582.657c-.9-.035-1.764-.316-2.592-.841-.822-.543-1.517-1.306-2.085-2.289Zm7.586-4.334c-.34-.59-.747-1.027-1.219-1.31a2.735 2.735 0 0 0-1.498-.43 2.833 2.833 0 0 0-1.467.384 2.848 2.848 0 0 0-1.059 1.051c-.255.44-.38.945-.376 1.513.009.55.181 1.114.514 1.693.334.578.744 1.021 1.229 1.327.49.287.993.437 1.508.448a2.801 2.801 0 0 0 1.45-.375c.452-.26.81-.614 1.077-1.061.26-.458.385-.963.376-1.513-.016-.561-.194-1.137-.535-1.727Zm7.292-10.805c1.145-.661 2.281-.831 3.408-.509 1.12.31 2.054 1.112 2.802 2.408l3.256 5.64-2.429 1.403-3.066-5.311c-.441-.763-.969-1.237-1.585-1.422-.622-.196-1.263-.103-1.923.277-.671.388-1.082.903-1.235 1.547-.148.625-.002 1.32.439 2.083l3.066 5.311-2.43 1.402-5.55-9.614 2.429-1.402.691 1.197a3.814 3.814 0 0 1 .671-1.683 4.415 4.415 0 0 1 1.456-1.327Zm15.546 4.237c-.787.454-1.573.723-2.358.806-.792.072-1.513-.029-2.164-.301a3.422 3.422 0 0 1-1.522-1.273l2.447-1.413c.26.344.617.547 1.069.609.465.056.934-.053 1.408-.327.463-.267.768-.566.916-.898.159-.339.155-.653-.012-.942-.18-.313-.476-.451-.887-.414-.405.018-1.009.135-1.81.351-.817.241-1.511.402-2.081.484a3.64 3.64 0 0 1-1.671-.169c-.544-.195-1.003-.616-1.377-1.264a2.918 2.918 0 0 1-.391-1.718c.059-.62.298-1.221.718-1.803.432-.588 1.035-1.106 1.81-1.554 1.145-.661 2.226-.9 3.243-.715 1.01.173 1.83.725 2.46 1.657l-2.325 1.342c-.255-.362-.591-.569-1.007-.622-.411-.071-.854.031-1.328.304-.44.254-.734.532-.884.835a.9.9 0 0 0 .044.877c.187.324.492.479.917.465.417-.025 1.017-.147 1.8-.368.794-.227 1.47-.379 2.029-.454a3.391 3.391 0 0 1 1.663.196c.556.189 1.024.597 1.402 1.227.321.555.452 1.143.394 1.763-.047.613-.287 1.214-.718 1.803-.427.57-1.022 1.075-1.785 1.516Zm2.267-7.973c-.561-.971-.868-1.943-.92-2.916-.041-.979.151-1.861.577-2.647a4.902 4.902 0 0 1 1.888-1.9c.717-.414 1.425-.63 2.125-.648.71-.025 1.354.089 1.932.342l-.791-1.371 2.447-1.413 5.55 9.614-2.447 1.413-.811-1.406c-.052.632-.269 1.258-.65 1.88-.377.603-.924 1.111-1.642 1.526a4.77 4.77 0 0 1-2.582.657c-.899-.036-1.763-.316-2.591-.841-.822-.543-1.517-1.306-2.085-2.29Zm7.586-4.333c-.341-.59-.747-1.027-1.219-1.31a2.738 2.738 0 0 0-1.498-.43 2.823 2.823 0 0 0-1.467.384c-.451.26-.804.611-1.059 1.051-.255.44-.38.945-.376 1.513.009.55.18 1.114.514 1.693.334.578.744 1.02 1.229 1.326.49.288.993.438 1.508.449a2.801 2.801 0 0 0 1.45-.375c.451-.26.81-.614 1.077-1.061.259-.458.385-.963.376-1.513-.016-.561-.194-1.137-.535-1.727Zm4.195-2.422c-.574-.995-.873-1.98-.895-2.954a4.917 4.917 0 0 1 .681-2.707c.477-.831 1.178-1.513 2.104-2.048 1.191-.688 2.348-.955 3.471-.801 1.127.136 2.134.665 3.022 1.588l-2.621 1.513a2.13 2.13 0 0 0-1.272-.561c-.465-.056-.94.056-1.426.336-.694.401-1.096.973-1.207 1.716-.118.731.09 1.56.625 2.485.527.914 1.141 1.509 1.839 1.784.693.264 1.386.195 2.08-.206.983-.567 1.371-1.378 1.165-2.431l2.62-1.513c.335 1.195.286 2.326-.146 3.394-.433 1.067-1.239 1.941-2.42 2.623-.925.534-1.863.806-2.814.815a5.105 5.105 0 0 1-2.686-.763c-.839-.519-1.546-1.275-2.12-2.27Zm12.27-10.833 2.685 4.651c.187.324.399.518.636.582.242.045.549-.039.919-.253l1.128-.651 1.182 2.047-1.527.882c-2.048 1.182-3.646.779-4.795-1.211l-2.675-4.634-1.145.661-1.153-1.995 1.146-.661-1.373-2.378 2.447-1.413 1.373 2.378 2.151-1.243 1.153 1.996-2.152 1.242Zm3.318-6.103c-.428.247-.864.321-1.307.222a1.603 1.603 0 0 1-1.007-.784 1.54 1.54 0 0 1-.165-1.247c.129-.444.407-.79.836-1.037.428-.247.861-.312 1.299-.195.442.099.781.351 1.015.756.233.405.286.83.157 1.275-.124.426-.4.763-.828 1.01Zm1.858.454 5.551 9.614-2.43 1.403-5.55-9.614 2.429-1.403Zm12.311 5.919c-.926.535-1.876.813-2.85.836a5.263 5.263 0 0 1-2.765-.741c-.85-.512-1.56-1.259-2.127-2.242-.568-.984-.855-1.975-.861-2.974a5.216 5.216 0 0 1 .785-2.767c.512-.851 1.23-1.544 2.156-2.078.926-.534 1.885-.81 2.877-.828a5.094 5.094 0 0 1 2.772.713c.874.499 1.595 1.239 2.162 2.223.568.983.843 1.981.826 2.994a5.32 5.32 0 0 1-.792 2.794c-.519.839-1.246 1.529-2.183 2.07Zm-1.223-2.117c.44-.254.79-.595 1.052-1.023.266-.447.392-.952.376-1.513-.016-.562-.201-1.149-.555-1.763-.527-.913-1.174-1.473-1.941-1.679a2.687 2.687 0 0 0-2.183.266 2.687 2.687 0 0 0-1.322 1.758c-.182.753-.01 1.587.518 2.501.528.914 1.161 1.489 1.899 1.726.743.219 1.462.128 2.156-.273Zm7.627-14.792c1.145-.661 2.281-.831 3.407-.51 1.12.31 2.054 1.113 2.802 2.409l3.257 5.64-2.43 1.402-3.066-5.31c-.441-.764-.969-1.238-1.584-1.422-.623-.196-1.263-.104-1.923.277-.671.387-1.083.903-1.236 1.546-.148.626-.001 1.32.439 2.084l3.066 5.31-2.429 1.403-5.551-9.614 2.43-1.403.691 1.198a3.811 3.811 0 0 1 .671-1.684 4.402 4.402 0 0 1 1.456-1.326Zm15.545 4.237c-.787.454-1.572.723-2.357.806-.792.071-1.513-.029-2.164-.301a3.418 3.418 0 0 1-1.522-1.274l2.447-1.412c.26.343.616.546 1.069.609.464.056.933-.053 1.408-.327.462-.267.768-.567.915-.899.16-.339.156-.653-.011-.942-.181-.312-.476-.45-.887-.413-.406.018-1.009.135-1.81.351-.818.24-1.511.402-2.081.484a3.64 3.64 0 0 1-1.671-.169c-.544-.195-1.004-.617-1.378-1.264a2.92 2.92 0 0 1-.39-1.719c.058-.62.298-1.22.718-1.802.431-.589 1.034-1.107 1.81-1.554 1.145-.662 2.226-.9 3.242-.716 1.01.173 1.831.725 2.461 1.657l-2.325 1.343c-.255-.362-.591-.569-1.007-.622-.412-.071-.854.03-1.329.304-.439.254-.734.532-.883.834a.9.9 0 0 0 .043.877c.187.324.493.479.917.466.418-.025 1.018-.148 1.8-.368.795-.228 1.471-.379 2.029-.454a3.384 3.384 0 0 1 1.664.196c.556.188 1.023.597 1.402 1.227.321.555.452 1.143.393 1.763-.047.613-.286 1.214-.718 1.802-.426.57-1.021 1.076-1.785 1.517ZM647.833 192.316l-1.944 1.122 4.995 8.652-2.845 1.642-4.995-8.651-1.262.729-1.309-2.267 1.263-.728-.319-.552c-.774-1.34-.955-2.549-.545-3.627.411-1.078 1.409-2.048 2.995-2.911l1.342 2.325c-.688.38-1.098.766-1.229 1.156-.13.391-.017.895.339 1.513l.262.453 1.943-1.122 1.309 2.266Zm1.181-5.438c-.495.286-.996.374-1.504.264a1.806 1.806 0 0 1-1.152-.885c-.266-.46-.326-.933-.179-1.42.151-.508.474-.905.969-1.191.494-.285.992-.362 1.495-.232.508.109.895.394 1.161.854.265.459.322.943.17 1.452-.146.487-.466.873-.96 1.158Zm2.133.503 6.303 10.918-2.805 1.619L648.342 189l2.805-1.619Zm8.831-5.309c1.323-.764 2.63-.967 3.923-.609 1.285.344 2.352 1.251 3.202 2.723l3.698 6.405-2.805 1.619-3.482-6.03c-.501-.867-1.104-1.403-1.81-1.609-.714-.218-1.452-.108-2.213.332-.775.447-1.253 1.038-1.434 1.774-.175.714-.012 1.505.488 2.372l3.482 6.03-2.805 1.619-6.304-10.917 2.805-1.62.786 1.36c.1-.689.362-1.33.785-1.925a5.162 5.162 0 0 1 1.684-1.524Zm10.914-3.962c.057-.734.304-1.446.743-2.137.451-.699 1.084-1.283 1.899-1.754.948-.547 1.936-.811 2.963-.791 1.04.013 2.027.319 2.961.918.94.579 1.732 1.427 2.377 2.543.644 1.117.99 2.24 1.036 3.369.053 1.109-.172 2.123-.674 3.043-.488.913-1.206 1.643-2.155 2.191-.828.478-1.647.74-2.457.788-.804.026-1.541-.109-2.211-.406l.899 1.557-2.805 1.62-8.419-14.583 2.805-1.62 3.038 5.262Zm8.077.434c-.379-.657-.845-1.141-1.399-1.452a3.134 3.134 0 0 0-1.719-.479 3.322 3.322 0 0 0-1.659.458 3.282 3.282 0 0 0-1.215 1.227c-.296.504-.445 1.08-.445 1.728.014.641.21 1.289.59 1.946.379.657.842 1.152 1.39 1.483a3.508 3.508 0 0 0 1.731.499 3.397 3.397 0 0 0 1.658-.458c.521-.301.926-.71 1.215-1.227a3.296 3.296 0 0 0 .434-1.748c0-.648-.194-1.307-.581-1.977Zm15.109-8.986c.227.394.405.764.534 1.11l-8.115 4.685c.522.75 1.159 1.206 1.911 1.367.752.161 1.489.034 2.21-.383 1.042-.601 1.53-1.469 1.462-2.604l3.026-1.747c.286 1.236.172 2.458-.342 3.666-.521 1.194-1.443 2.173-2.766 2.937-1.068.617-2.163.942-3.283.976a5.911 5.911 0 0 1-3.133-.845c-.96-.585-1.763-1.435-2.408-2.552-.652-1.129-.991-2.256-1.016-3.38a5.6 5.6 0 0 1 .825-3.105c.576-.945 1.412-1.734 2.507-2.367 1.056-.609 2.126-.929 3.212-.961a5.379 5.379 0 0 1 3.047.79c.938.544 1.714 1.349 2.329 2.413Zm-3.361.889c-.423-.702-1.009-1.116-1.76-1.244-.757-.14-1.504.002-2.238.426-.695.401-1.161.95-1.4 1.648-.232.678-.189 1.415.129 2.212l5.269-3.042Zm13.046 1.349c-.908.525-1.814.837-2.717.939-.911.088-1.74-.021-2.486-.326a3.85 3.85 0 0 1-1.739-1.439l2.825-1.631c.296.389.704.618 1.224.685.534.06 1.074-.068 1.622-.384.534-.308.887-.653 1.06-1.032.186-.388.184-.746-.006-1.075-.205-.354-.543-.509-1.016-.464-.467.024-1.162.163-2.084.415-.942.281-1.741.471-2.397.569a4.187 4.187 0 0 1-1.92-.179c-.624-.217-1.149-.694-1.573-1.43a3.272 3.272 0 0 1-.435-1.956c.072-.707.352-1.395.84-2.061.501-.675 1.199-1.271 2.094-1.787 1.322-.764 2.567-1.045 3.734-.843 1.16.189 2.099.812 2.816 1.869l-2.685 1.55c-.29-.41-.674-.644-1.153-.7-.472-.078-.982.041-1.529.357-.508.293-.849.613-1.023.959-.161.338-.147.671.043 1 .212.367.562.542 1.05.523.48-.032 1.171-.177 2.073-.435.915-.265 1.694-.444 2.336-.534a3.899 3.899 0 0 1 1.912.21c.637.21 1.171.673 1.602 1.387.364.631.51 1.3.438 2.008-.06.699-.34 1.386-.841 2.061-.495.654-1.183 1.235-2.065 1.744Zm4.839-14.565 3.05 5.281c.212.368.454.587.726.658.279.05.631-.049 1.059-.296l1.302-.752 1.343 2.326-1.764 1.018c-2.364 1.365-4.198.917-5.503-1.342l-3.038-5.262-1.322.763-1.309-2.266 1.323-.763-1.559-2.7 2.825-1.631 1.559 2.7 2.484-1.435 1.309 2.266-2.485 1.435Z"/>
      <path fill="#A5DFDC" d="m712.745 144.546 7.585-10.399 1.73 2.997-7.585 10.399-1.73-2.997Zm1.73 2.997 10.192-5.885 1.53 2.651-10.191 5.885z"/>
      <path stroke="#000" stroke-width="1.336" d="M831.37 91.422a2.72 2.72 0 0 1-2.022.289 2.532 2.532 0 0 1-1.58-1.185 2.537 2.537 0 0 1-.236-1.96c.19-.67.643-1.25 1.262-1.607a2.72 2.72 0 0 1 2.022-.289l.164-.647-.164.647c.675.17 1.241.598 1.58 1.184.338.587.426 1.291.236 1.96-.19.67-.643 1.25-1.262 1.608Z"/>
      <path fill="#000" d="m804.947 103.033 17.932-10.353 2.004 3.471-17.932 10.353zm33.202 163.778a6.261 6.261 0 0 1 3.882-7.957l74.981-25.813a6.262 6.262 0 0 1 7.958 3.882l25.812 74.981a6.26 6.26 0 0 1-3.882 7.958l-74.981 25.812a6.26 6.26 0 0 1-7.957-3.881l-25.813-74.982Z"/>
      <path fill="#D9D9D9" d="m853.109 278.214 33.545-11.548.679 1.973-33.544 11.548-.68-1.973Z"/>
      <path fill="#A5DFDC" d="m888.19 322.417 1.359 3.946-3.946 1.359-1.359-3.946 3.946-1.359Zm9.866-3.396 1.358 3.946-3.946 1.359-1.359-3.947 3.947-1.358Zm26.557-51.077 14.265 41.437-3.946 1.359-14.265-41.437 3.946-1.359Zm-5.79 15.236 10.189 29.598-3.946 1.358-10.189-29.598 3.946-1.358Zm-4.092 20.168 4.416 12.826-3.947 1.359-4.415-12.826 3.946-1.359Zm-11.564-1.536 6.114 17.758-3.947 1.359-6.113-17.759 3.946-1.358Z"/>
      <path fill="#fff" d="M853.601 273.677c-.289.1-.566.14-.833.121a1.347 1.347 0 0 1-.691-.238 1.186 1.186 0 0 1-.433-.586l.887-.306c.071.166.176.28.317.342.144.06.311.058.5-.007.194-.067.33-.164.409-.293a.49.49 0 0 0 .04-.424.445.445 0 0 0-.217-.264.797.797 0 0 0-.347-.085 3.932 3.932 0 0 0-.515.005 5.831 5.831 0 0 1-.736-.005 1.305 1.305 0 0 1-.553-.2c-.172-.117-.303-.306-.393-.567a1.18 1.18 0 0 1-.037-.702c.06-.224.184-.421.373-.592.187-.175.422-.311.706-.409.427-.146.808-.161 1.144-.043.339.113.586.35.742.712l-.912.314a.485.485 0 0 0-.304-.286c-.143-.057-.307-.053-.492.01a.621.621 0 0 0-.348.259c-.066.116-.072.252-.018.41a.411.411 0 0 0 .202.242c.1.045.211.073.334.084.125.005.297.003.514-.005.296-.014.542-.01.739.01.197.021.384.089.56.205.177.115.309.301.398.558.076.221.089.446.04.675a1.31 1.31 0 0 1-.346.629 1.846 1.846 0 0 1-.73.436Zm2.029-3.883c.055-.187.158-.361.309-.524.155-.167.352-.293.593-.376a1.501 1.501 0 0 1 1.571.353c.221.207.39.478.505.813.116.335.151.656.106.963a1.54 1.54 0 0 1-.332.783c-.176.22-.405.378-.685.474-.24.083-.471.107-.69.072a1.445 1.445 0 0 1-.572-.22l.699 2.031-.829.285-1.667-4.842.829-.285.163.473Zm2.132.557a1.053 1.053 0 0 0-.3-.466.848.848 0 0 0-.434-.221.88.88 0 0 0-.465.034.912.912 0 0 0-.591.707c-.028.173-.009.358.059.555.068.198.167.356.296.475a.961.961 0 0 0 .436.227c.16.029.315.017.465-.034a.857.857 0 0 0 .385-.265.91.91 0 0 0 .204-.448 1.11 1.11 0 0 0-.055-.564Zm4.476-1.607c.041.118.07.228.087.328l-2.398.825c.102.23.248.387.441.471a.812.812 0 0 0 .608.016c.307-.106.481-.314.52-.623l.894-.308c.014.349-.078.672-.276.969-.199.294-.494.508-.884.642a1.848 1.848 0 0 1-.924.087 1.612 1.612 0 0 1-.792-.397 1.96 1.96 0 0 1-.513-.816 1.96 1.96 0 0 1-.1-.965c.05-.304.175-.568.376-.792.201-.224.463-.391.787-.503.312-.107.613-.136.904-.086.295.049.552.174.772.377.222.197.388.455.498.775Zm-.939.059a.69.69 0 0 0-.406-.43.86.86 0 0 0-.618-.006.805.805 0 0 0-.456.369.86.86 0 0 0-.077.603l1.557-.536Zm2.805-2.509c.391-.134.75-.119 1.076.047.325.162.563.464.716.906l.662 1.923-.829.286-.623-1.812c-.09-.26-.224-.437-.402-.53-.179-.097-.381-.107-.606-.03-.229.079-.386.212-.471.401-.083.183-.079.404.01.665l.624 1.811-.829.285-1.129-3.279.829-.285.141.408c.061-.18.163-.339.306-.476.145-.143.32-.249.525-.32Zm3.312-.326.546 1.587c.038.11.092.182.161.216.071.028.17.021.297-.023l.384-.132.241.698-.521.18c-.699.24-1.165.021-1.398-.658l-.544-1.58-.391.134-.234-.681.39-.134-.279-.811.835-.287.279.811.734-.253.234.681-.734.252Zm-6.239 34.85-.13-.376.66-1.319c.063-.13.113-.242.15-.339.038-.097.061-.185.069-.266a.585.585 0 0 0-.03-.241.437.437 0 0 0-.363-.304.57.57 0 0 0-.264.031.532.532 0 0 0-.228.144.428.428 0 0 0-.109.221.552.552 0 0 0 .03.273l-.495.171a.941.941 0 0 1-.038-.518.882.882 0 0 1 .235-.431c.122-.124.277-.219.467-.284.192-.067.374-.089.544-.067a.87.87 0 0 1 .441.179.813.813 0 0 1 .27.387c.037.107.053.22.047.338a1.42 1.42 0 0 1-.098.419 5.92 5.92 0 0 1-.276.607l-.321.674.007.019 1.25-.43.149.435-1.967.677Zm3.53-1.154c-.23.079-.449.089-.654.029a1.179 1.179 0 0 1-.555-.378 2.306 2.306 0 0 1-.408-.758 2.296 2.296 0 0 1-.142-.844c.013-.251.081-.463.206-.636.125-.172.303-.298.533-.377.23-.08.447-.09.653-.031.205.059.389.184.553.374.165.19.301.441.408.753a2.3 2.3 0 0 1 .144.85c-.012.252-.08.465-.205.638-.124.174-.302.3-.533.38Zm-.151-.439c.18-.062.291-.199.334-.411.043-.214.006-.493-.113-.838a2.087 2.087 0 0 0-.269-.55.805.805 0 0 0-.323-.28.463.463 0 0 0-.349-.013c-.178.061-.289.198-.332.412-.042.212-.006.489.111.831.078.23.167.414.268.554.101.14.209.234.323.284a.475.475 0 0 0 .35.011Zm2.234 14.106.988 2.87-.52.179-.814-2.364-.017.006-.523.66-.164-.477.555-.703.495-.171Zm2.796 2.309c-.23.079-.449.089-.654.029a1.179 1.179 0 0 1-.555-.378 2.32 2.32 0 0 1-.408-.757 2.3 2.3 0 0 1-.142-.845c.013-.251.081-.463.206-.635a1.06 1.06 0 0 1 .533-.378c.23-.079.447-.089.653-.03.205.059.389.183.553.373.165.19.301.441.408.753.108.314.156.598.144.851-.012.251-.08.464-.205.638-.124.173-.302.3-.533.379Zm-.151-.439c.18-.061.291-.198.334-.411.043-.213.006-.492-.113-.837a2.087 2.087 0 0 0-.269-.55.808.808 0 0 0-.323-.281.468.468 0 0 0-.349-.013c-.178.061-.289.199-.332.412-.042.212-.005.49.111.832.078.229.167.414.268.554a.815.815 0 0 0 .323.283.466.466 0 0 0 .35.011Zm3.69 16.878a1.062 1.062 0 0 1-.654.029 1.179 1.179 0 0 1-.555-.378 2.288 2.288 0 0 1-.408-.758 2.275 2.275 0 0 1-.142-.844c.013-.251.081-.463.206-.636.125-.172.303-.298.533-.377.23-.08.447-.09.652-.031.206.059.39.184.554.374.164.19.301.441.408.753a2.3 2.3 0 0 1 .144.85c-.012.252-.08.465-.205.638-.125.174-.302.3-.533.38Zm-.151-.439c.179-.062.291-.199.334-.411.043-.214.006-.493-.113-.838a2.134 2.134 0 0 0-.269-.55.805.805 0 0 0-.323-.28.463.463 0 0 0-.349-.013c-.179.061-.289.198-.332.412-.043.212-.006.489.111.831.078.23.167.414.267.554.102.14.21.234.324.284a.475.475 0 0 0 .35.011Z"/>
      <g filter="url(#c)">
        <path fill="#fff" d="M678.961 249.226a4.325 4.325 0 0 1 .442-6.1l41.435-35.832a4.325 4.325 0 0 1 6.1.443l36.303 41.98a4.323 4.323 0 0 1-.443 6.099l-41.434 35.832a4.325 4.325 0 0 1-6.1-.443l-36.303-41.979Z"/>
      </g>
      <path fill="#ADE2DF" d="M715.796 269.782a2.883 2.883 0 0 1 .294-4.067l21.808-18.858a2.883 2.883 0 0 1 4.067.294l6.6 7.633a2.883 2.883 0 0 1-.295 4.067l-21.807 18.858a2.883 2.883 0 0 1-4.067-.295l-6.6-7.632Z"/>
      <path fill="#000" d="m723.779 268.595 15.672-13.553.943 1.091-15.672 13.553-.943-1.091Z"/>
      <path fill="#D9D9D9" fill-rule="evenodd" d="m739.402 233.169-37.073 32.059-.471-.545 37.073-32.059.471.545Z" clip-rule="evenodd"/>
      <path fill="#000" d="M707.598 250.367c.228.265.375.574.44.926.066.344.033.706-.1 1.088-.132.372-.365.724-.699 1.058l.534.618-.488.423-.541-.626c-.549.394-1.09.595-1.625.604-.539.004-1.008-.213-1.405-.652l1.145-.99c.347.34.727.398 1.139.175l-1.261-1.458a8.73 8.73 0 0 1-1.123.491 1.89 1.89 0 0 1-.963.059c-.339-.063-.66-.269-.963-.621-.383-.442-.538-.94-.464-1.493.078-.557.352-1.073.82-1.55l-.534-.618.488-.422.535.618c.523-.382 1.04-.571 1.55-.567.515-.001.984.207 1.407.624l-1.152.997a.891.891 0 0 0-.491-.243.9.9 0 0 0-.555.067l1.247 1.442a8.759 8.759 0 0 1 1.145-.496c.299-.107.618-.13.956-.067.335.058.654.262.958.613Zm-4.842.078a.754.754 0 0 0 .509.28c.19.014.41-.029.66-.13l-1.142-1.321a.946.946 0 0 0-.256.582c-.01.205.066.401.229.589Zm3.744 2.139c.162-.203.244-.412.245-.626a.83.83 0 0 0-.215-.588.702.702 0 0 0-.51-.266c-.195-.009-.42.039-.676.144l1.156 1.336Zm2.788-3.105c.136-.83.233-1.505.29-2.025a6.404 6.404 0 0 0-.014-1.482c-.062-.462-.216-.836-.463-1.121-.224-.259-.461-.41-.711-.452-.25-.042-.502.047-.756.267-.255.22-.376.476-.363.768.007.286.136.58.387.879l-1.038.898c-.508-.628-.728-1.248-.66-1.858.073-.615.375-1.151.904-1.609.58-.501 1.159-.731 1.738-.689.574.037 1.08.307 1.515.811.343.397.564.868.663 1.414.099.547.127 1.073.086 1.581a32.09 32.09 0 0 1-.245 1.892l2.252-1.947.766.885-3.771 3.261-.686-.794.106-.679Zm1.561-6.406c-.415-.531-.576-1.076-.483-1.637.094-.571.413-1.091.958-1.562.371-.321.747-.53 1.126-.627a1.783 1.783 0 0 1 1.05.012c.327.1.611.29.853.57.278.321.429.665.455 1.035.026.359-.042.676-.205.951l.026.03a1.666 1.666 0 0 1 1.11-.105c.37.088.714.316 1.03.682.264.306.429.639.493 1.002.069.358.026.724-.13 1.099-.155.366-.424.714-.805 1.044-.575.497-1.169.757-1.781.779-.612.022-1.173-.24-1.681-.787l1.038-.898c.226.241.483.369.773.385.291.007.576-.111.856-.353.259-.224.396-.467.41-.728a1.031 1.031 0 0 0-.275-.75c-.264-.305-.55-.44-.857-.405-.308.035-.666.228-1.073.58l-.221.191-.759-.877.221-.192c.723-.625.875-1.179.457-1.662-.189-.219-.403-.332-.641-.34-.232-.012-.471.088-.715.299-.239.207-.368.433-.386.68-.017.237.05.464.201.68l-1.045.904Zm7.115-.883-.726-.84-.593-5.73 1.244-1.076 3.01 3.48.671-.581.806.932-.672.58.937 1.084-1.068.924-.938-1.083-2.671 2.31Zm-.085-5.637.455 3.689 1.565-1.353-2.02-2.336Zm5.841-5.558-2.473 2.139 1.129 1.305a1.476 1.476 0 0 1 .181-.717c.123-.258.297-.484.521-.677.407-.352.817-.551 1.231-.598.413-.046.8.02 1.159.199.354.173.668.418.941.733.506.585.745 1.201.717 1.848-.022.642-.342 1.23-.957 1.762-.58.502-1.169.757-1.766.766-.597.009-1.12-.2-1.571-.629l1.038-.897a1.1 1.1 0 0 0 .728.224c.268-.019.527-.136.776-.351.301-.26.446-.55.436-.87-.011-.321-.15-.636-.418-.946-.273-.316-.559-.487-.857-.513-.298-.036-.597.076-.897.335-.214.185-.346.393-.396.623-.05.23-.029.46.064.691l-1.023.885-2.825-3.267 3.45-2.984.812.939Z"/>
      <g filter="url(#d)">
        <path fill="#fff" d="M710.79 291.956a6.322 6.322 0 0 1 2.314-8.636l159.695-92.2a6.323 6.323 0 0 1 8.637 2.314l40.041 69.353a6.324 6.324 0 0 1-2.314 8.637l-159.695 92.2a6.324 6.324 0 0 1-8.637-2.315l-40.041-69.353Z"/>
      </g>
      <path fill="#D9D9D9" d="m769.062 287.514 43.802-25.289 1.053 1.825-43.802 25.29-1.053-1.826Zm2.634 4.563 24.639-14.225 1.054 1.825-24.639 14.225-1.054-1.825Z"/>
      <path fill="#000" d="m766.696 279.013 2.099-1.212.585 1.013-3.376 1.949-3.678-6.369 1.278-.738 3.092 5.357Zm5.788-1.882a3.097 3.097 0 0 1-1.498.439 2.768 2.768 0 0 1-1.454-.389c-.447-.269-.82-.662-1.119-1.179-.298-.517-.449-1.039-.452-1.564a2.74 2.74 0 0 1 .413-1.455 3.1 3.1 0 0 1 1.133-1.093 3.097 3.097 0 0 1 1.513-.435 2.676 2.676 0 0 1 1.458.375c.459.262.838.651 1.137 1.169.298.517.443 1.041.434 1.574a2.797 2.797 0 0 1-.417 1.469 3.177 3.177 0 0 1-1.148 1.089Zm-.642-1.113c.231-.134.415-.313.553-.539.14-.235.206-.5.197-.795-.008-.295-.105-.604-.291-.927-.278-.48-.618-.775-1.021-.883a1.413 1.413 0 0 0-1.148.14 1.412 1.412 0 0 0-.695.925c-.096.396-.005.834.272 1.315.278.48.61.783.999.907.391.115.769.068 1.134-.143Zm3.183-7.314c.378-.217.753-.333 1.127-.346.37-.019.706.043 1.007.185l-.416-.721 1.286-.742 2.94 5.091c.271.469.417.94.439 1.414.026.48-.088.935-.343 1.366-.25.437-.644.81-1.179 1.119-.718.414-1.404.588-2.06.52-.649-.071-1.171-.378-1.566-.921l1.269-.732c.2.192.448.292.745.3.305.01.617-.077.933-.259.371-.215.607-.501.708-.86.105-.352.027-.753-.232-1.204l-.454-.784a2.233 2.233 0 0 1-.341.988 2.317 2.317 0 0 1-.849.806 2.508 2.508 0 0 1-1.358.346 2.682 2.682 0 0 1-1.371-.437c-.433-.286-.799-.687-1.097-1.204-.295-.511-.456-1.022-.484-1.534-.021-.514.08-.978.304-1.392a2.58 2.58 0 0 1 .992-.999Zm3.177 1.646c-.179-.31-.393-.54-.641-.688a1.438 1.438 0 0 0-.788-.227 1.491 1.491 0 0 0-.771.202 1.493 1.493 0 0 0-.557.553c-.134.231-.2.497-.198.795.005.29.095.586.271.891.175.304.391.536.646.697.258.152.522.23.793.236.277.002.531-.063.762-.197.238-.137.426-.323.566-.558.137-.241.203-.506.198-.795a1.92 1.92 0 0 0-.281-.909Zm2.195-1.292c-.295-.511-.456-1.022-.483-1.533a2.629 2.629 0 0 1 .303-1.392c.23-.417.561-.75.993-.999.377-.218.75-.332 1.117-.341.374-.013.713.047 1.017.18l-.417-.721 1.287-.743 2.919 5.055-1.287.743-.427-.739a2.218 2.218 0 0 1-.342.988 2.407 2.407 0 0 1-.863.803 2.505 2.505 0 0 1-1.357.346 2.72 2.72 0 0 1-1.363-.443c-.432-.285-.798-.687-1.097-1.204Zm3.99-2.279c-.179-.31-.393-.539-.641-.688a1.449 1.449 0 0 0-.788-.227 1.498 1.498 0 0 0-.772.202 1.498 1.498 0 0 0-.556.553 1.54 1.54 0 0 0-.198.796c.005.289.095.586.27.89.176.304.391.537.647.698.257.151.522.229.793.235.277.002.531-.063.762-.197.237-.137.426-.323.566-.558.137-.241.203-.506.198-.795-.008-.296-.102-.598-.281-.909Zm3.834-5.681c.602-.348 1.2-.437 1.792-.268.589.163 1.08.585 1.473 1.266l1.713 2.966-1.278.738-1.612-2.793c-.232-.401-.51-.65-.833-.747-.327-.104-.664-.055-1.011.145-.353.204-.57.475-.65.813-.078.329-.001.694.231 1.096l1.612 2.792-1.277.738-2.919-5.056 1.277-.737.364.629c.044-.317.161-.612.353-.885.194-.282.449-.514.765-.697Zm10.095-3.346c.397-.14.796-.131 1.196.027.399.159.708.427.926.804.197.341.285.691.266 1.051-.017.35-.141.69-.373 1.018-.232.329-.564.618-.996.867l-2.747 1.586-3.677-6.369 2.628-1.518c.432-.249.843-.393 1.234-.432.397-.043.747.014 1.049.173.308.154.554.39.737.706.214.371.293.739.236 1.105a1.811 1.811 0 0 1-.479.982Zm-2.61.874 1.168-.674c.304-.176.499-.378.586-.607.084-.234.052-.479-.096-.735-.147-.255-.344-.406-.589-.451-.245-.045-.519.02-.823.196l-1.168.674.922 1.597Zm2.846 1.959c.31-.18.508-.391.594-.636.092-.248.061-.505-.093-.773-.158-.274-.373-.434-.643-.481-.274-.053-.566.011-.876.19l-1.259.727.99 1.715 1.287-.742Zm6.192-2.079a3.11 3.11 0 0 1-1.498.439 2.768 2.768 0 0 1-1.454-.389c-.447-.269-.82-.662-1.119-1.18-.298-.517-.449-1.038-.453-1.563a2.741 2.741 0 0 1 .414-1.455 3.092 3.092 0 0 1 1.133-1.093 3.097 3.097 0 0 1 1.513-.435 2.668 2.668 0 0 1 1.458.375c.459.262.838.651 1.137 1.168.298.517.443 1.042.434 1.575a2.8 2.8 0 0 1-.417 1.469 3.186 3.186 0 0 1-1.148 1.089Zm-.643-1.113c.232-.134.416-.313.553-.539.141-.235.206-.5.198-.795-.008-.296-.105-.605-.291-.927-.278-.481-.618-.775-1.021-.883a1.413 1.413 0 0 0-1.148.14 1.417 1.417 0 0 0-.696.924c-.095.396-.005.835.273 1.315.277.481.61.784.999.908.39.115.768.067 1.133-.143Zm6.088-8.881 1.169 9.254-1.36.785-.359-3.151-4.871-3.758 1.433-.827 3.344 2.778-.716-4.296 1.36-.785Z"/>
      <path fill="#D9D9D9" d="m748.366 335.965 151.482-87.458 1.054 1.825L749.42 337.79l-1.054-1.825Z"/>
      <path fill="url(#e)" d="m748.366 335.965 110.418-63.75 1.054 1.825-110.418 63.75-1.054-1.825Z"/>
      <path fill="url(#f)" d="M729.926 304.026c-4.365-7.56-1.775-17.226 5.785-21.591 7.56-4.365 17.226-1.774 21.591 5.785 4.365 7.56 1.775 17.227-5.785 21.591-7.56 4.365-17.227 1.775-21.591-5.785Z"/>
      <path fill="#375EE0" d="M754.368 333.717a4.214 4.214 0 1 1-7.301 4.214 4.214 4.214 0 1 1 7.301-4.214Z"/>
      <path fill="#000" d="m756.266 348.438-1.703-1.003-.362.209.86 1.489-.766.443-2.207-3.822 1.435-.828a1.91 1.91 0 0 1 .847-.278c.267-.018.503.033.709.153.207.114.374.281.5.5.145.252.204.522.176.811-.03.285-.167.549-.411.792l1.809 1.022-.887.512Zm-2.396-1.369.64-.37c.208-.12.335-.259.38-.416.043-.162.013-.332-.09-.51-.101-.176-.23-.281-.387-.317-.159-.04-.343.001-.551.121l-.641.37.649 1.122Zm5.839-2.729c.063.11.112.213.148.309l-2.217 1.28c.145.208.32.336.527.382a.82.82 0 0 0 .606-.102c.284-.164.416-.403.396-.717l.826-.478a1.61 1.61 0 0 1-.086 1.014c-.141.329-.392.598-.753.807a1.873 1.873 0 0 1-.899.264 1.639 1.639 0 0 1-.862-.24 1.98 1.98 0 0 1-.665-.711 1.975 1.975 0 0 1-.286-.938 1.547 1.547 0 0 1 .22-.857c.157-.26.384-.477.684-.65.288-.166.581-.253.879-.259.302-.009.581.066.838.224.258.153.473.377.644.672Zm-.921.24a.692.692 0 0 0-.485-.348.874.874 0 0 0-.614.113.807.807 0 0 0-.38.454c-.063.187-.05.391.039.612l1.44-.831Zm1.321-.383a1.95 1.95 0 0 1-.283-.932 1.56 1.56 0 0 1 .215-.854c.151-.262.372-.478.664-.646.376-.217.741-.302 1.095-.253.356.043.674.21.954.501l-.827.477a.679.679 0 0 0-.402-.177.723.723 0 0 0-.449.106.728.728 0 0 0-.381.542c-.038.23.028.492.197.784.166.288.36.476.58.563a.735.735 0 0 0 .656-.065c.311-.179.433-.435.368-.767l.827-.478c.105.377.09.734-.047 1.071-.136.337-.391.613-.763.828a1.8 1.8 0 0 1-.888.257 1.608 1.608 0 0 1-.847-.241 1.982 1.982 0 0 1-.669-.716Zm6.272-3.709c.064.109.113.212.149.308l-2.217 1.28c.145.209.32.336.527.382a.823.823 0 0 0 .606-.101c.284-.165.416-.404.396-.718l.826-.477c.081.342.053.68-.086 1.013-.141.33-.392.599-.753.807a1.862 1.862 0 0 1-.899.264 1.639 1.639 0 0 1-.862-.24 1.98 1.98 0 0 1-.665-.711 1.971 1.971 0 0 1-.286-.937 1.55 1.55 0 0 1 .22-.858c.157-.26.384-.477.684-.65.288-.166.581-.253.879-.259.302-.009.581.066.838.224.258.153.473.377.643.673Zm-.92.239a.692.692 0 0 0-.485-.348.868.868 0 0 0-.614.114.805.805 0 0 0-.38.453c-.063.187-.05.391.039.612l1.44-.831Zm.822-2.599a.558.558 0 0 1-.412.07.507.507 0 0 1-.318-.247.491.491 0 0 1-.052-.394.546.546 0 0 1 .264-.327.523.523 0 0 1 .41-.061c.14.031.246.11.32.238.074.128.09.262.05.402a.535.535 0 0 1-.262.319Zm.587.143 1.751 3.033-.766.443-1.752-3.033.767-.443Zm3.365 1.16-.577-2.77.816-.471.629 3.681-.931.538-2.868-2.389.821-.474 2.11 1.885Zm4.327-3.666c.064.109.113.212.149.308l-2.217 1.28c.144.209.32.336.527.382a.822.822 0 0 0 .605-.101c.285-.165.417-.404.396-.718l.827-.478c.081.343.052.681-.086 1.014-.141.329-.392.599-.753.807a1.862 1.862 0 0 1-.9.264 1.638 1.638 0 0 1-.861-.24 1.974 1.974 0 0 1-.666-.711 1.98 1.98 0 0 1-.285-.937c-.01-.311.064-.597.22-.858.156-.26.384-.477.683-.65.289-.166.582-.253.88-.259.301-.009.581.066.838.224.258.153.473.377.643.673Zm-.92.239a.694.694 0 0 0-.485-.348.868.868 0 0 0-.614.114.804.804 0 0 0-.381.453.87.87 0 0 0 .04.612l1.44-.831Zm1.314-.394a2.046 2.046 0 0 1-.29-.92c-.013-.309.05-.588.188-.838a1.552 1.552 0 0 1 1.235-.794c.227-.019.435.012.623.093l-.831-1.44.777-.449 2.339 4.052-.777.449-.259-.449a1.206 1.206 0 0 1-.191.592c-.119.19-.292.35-.518.481a1.504 1.504 0 0 1-.815.208 1.617 1.617 0 0 1-.823-.262 2.12 2.12 0 0 1-.658-.723Zm2.394-1.367a1.12 1.12 0 0 0-.385-.413.857.857 0 0 0-.472-.136.888.888 0 0 0-.463.121.887.887 0 0 0-.334.332.916.916 0 0 0-.119.477c.003.173.057.352.162.534.106.183.235.322.388.419.155.09.313.138.476.141a.885.885 0 0 0 .457-.118.926.926 0 0 0 .34-.335.929.929 0 0 0 .119-.477 1.16 1.16 0 0 0-.169-.545Zm-20.638 19.724c-.365-.632-.537-1.192-.517-1.68.023-.491.299-.889.829-1.194.529-.306 1.01-.345 1.443-.118.436.225.837.653 1.201 1.285.367.635.54 1.199.519 1.694-.018.492-.292.89-.821 1.196-.529.306-1.013.344-1.452.115-.435-.23-.835-.663-1.202-1.298Zm2.201-1.271a4.061 4.061 0 0 0-.447-.647 1.025 1.025 0 0 0-.47-.335c-.17-.058-.357-.027-.561.091-.205.118-.326.266-.365.443-.034.176-.016.368.055.575.072.202.186.437.342.707.161.278.312.502.454.673.141.167.297.278.471.334.171.052.359.019.563-.099.205-.118.327-.264.368-.438a1.03 1.03 0 0 0-.055-.575 4.76 4.76 0 0 0-.355-.729Zm2.262.271c.182-.495.321-.899.418-1.212.094-.317.149-.622.166-.914.016-.292-.035-.54-.153-.744-.107-.186-.235-.307-.384-.362-.149-.056-.314-.03-.497.075-.182.105-.287.248-.314.429-.029.178.016.373.134.587l-.744.43c-.239-.446-.301-.853-.187-1.221.118-.369.366-.664.746-.883.416-.24.8-.313 1.151-.219.349.09.628.316.837.678.164.284.244.6.241.948a3.844 3.844 0 0 1-.134.983c-.088.303-.212.682-.374 1.135l1.615-.932.367.635-2.705 1.561-.328-.569.145-.405Zm3.852-1.02a.569.569 0 0 1-.418.074.509.509 0 0 1-.318-.248.488.488 0 0 1-.052-.393.558.558 0 0 1 .27-.331.52.52 0 0 1 .779.58.534.534 0 0 1-.261.318Zm-.209-2.66c-.365-.632-.537-1.192-.517-1.68.023-.491.299-.889.829-1.194.529-.306 1.01-.345 1.443-.118.436.225.837.653 1.201 1.285.367.635.54 1.199.518 1.694-.017.492-.291.89-.82 1.196-.529.306-1.013.344-1.452.115-.435-.23-.836-.663-1.202-1.298Zm2.201-1.271a4.061 4.061 0 0 0-.447-.647 1.025 1.025 0 0 0-.47-.335c-.17-.058-.357-.027-.561.091-.205.118-.326.266-.365.444-.034.175-.016.367.055.574.072.202.186.437.342.707.161.278.312.502.454.673.141.167.297.278.471.334.171.052.359.019.563-.099.205-.118.327-.264.368-.438a1.03 1.03 0 0 0-.055-.575 4.855 4.855 0 0 0-.355-.729Zm2.039.516-.348-.602.311-3.596.893-.515 1.441 2.496.482-.278.386.668-.482.278.449.778-.767.442-.449-.777-1.916 1.106Zm.613-3.478-.155 2.324 1.122-.649-.967-1.675Z"/>
      <path fill="#A5DFDC" d="M862.961 271.02a4.216 4.216 0 0 1-7.301 4.215 4.216 4.216 0 0 1 7.301-4.215Z"/>
      <path fill="#000" d="M864.229 286.156a2.115 2.115 0 0 1-.802.281 1.366 1.366 0 0 1-.731-.104 1.2 1.2 0 0 1-.543-.497l.822-.474a.62.62 0 0 0 .379.278c.155.032.32-.003.495-.104.179-.103.295-.226.349-.369a.492.492 0 0 0-.043-.428.447.447 0 0 0-.265-.219.804.804 0 0 0-.361-.018c-.127.015-.297.05-.509.104-.29.07-.534.116-.731.137a1.293 1.293 0 0 1-.586-.092c-.194-.083-.36-.245-.5-.486a1.197 1.197 0 0 1-.171-.689c.016-.233.101-.453.255-.658.152-.209.359-.39.622-.542.394-.227.769-.315 1.125-.263.358.047.649.234.873.563l-.844.486a.493.493 0 0 0-.356-.225.706.706 0 0 0-.486.106.623.623 0 0 0-.295.324c-.044.127-.023.263.061.409.059.103.141.17.247.201.107.026.223.032.347.019.125-.019.295-.054.509-.104.29-.071.535-.115.734-.132.199-.018.398.014.595.094.198.081.365.24.502.477.118.205.174.425.17.661a1.321 1.321 0 0 1-.222.691c-.146.22-.359.411-.64.573Zm1.263-4.24c.019-.196.087-.389.206-.579.12-.196.292-.359.515-.487a1.52 1.52 0 0 1 1.626.047c.259.162.478.398.657.708.179.31.276.622.291.934.016.307-.043.587-.179.841a1.484 1.484 0 0 1-.587.602 1.44 1.44 0 0 1-.67.204 1.456 1.456 0 0 1-.61-.108l1.084 1.878-.767.443-2.585-4.479.766-.442.253.438Zm2.221.141a1.07 1.07 0 0 0-.387-.404.895.895 0 0 0-1.258.324.93.93 0 0 0-.119.478c.005.177.06.357.166.539.105.183.233.321.384.413a.979.979 0 0 0 .476.142.915.915 0 0 0 .454-.124.908.908 0 0 0 .447-.82 1.11 1.11 0 0 0-.163-.548Zm4.128-2.456c.063.109.113.212.149.308l-2.218 1.28c.145.209.321.336.527.382a.819.819 0 0 0 .606-.101c.285-.165.417-.404.396-.718l.827-.477c.081.342.052.68-.087 1.013-.14.33-.391.599-.753.807a1.862 1.862 0 0 1-.899.264 1.633 1.633 0 0 1-.861-.24 1.966 1.966 0 0 1-.666-.711 1.983 1.983 0 0 1-.286-.937 1.538 1.538 0 0 1 .221-.857c.156-.261.384-.478.683-.65a1.82 1.82 0 0 1 .879-.26c.302-.009.581.066.838.224.259.153.473.377.644.673Zm-.92.239a.692.692 0 0 0-.486-.347.86.86 0 0 0-.613.113.807.807 0 0 0-.381.453.87.87 0 0 0 .04.612l1.44-.831Zm2.297-3.027c.362-.209.72-.263 1.075-.161.354.097.648.351.885.76l1.027 1.779-.767.443-.967-1.676c-.139-.241-.306-.39-.5-.449-.196-.061-.398-.032-.606.088-.212.122-.342.285-.39.488-.047.197-.001.416.138.657l.967 1.676-.766.442-1.751-3.033.766-.443.218.378a1.21 1.21 0 0 1 .212-.531c.116-.169.269-.309.459-.418Zm3.221-.962.847 1.468c.059.102.126.163.201.183.076.014.173-.012.289-.08l.356-.205.373.646-.482.278c-.646.373-1.15.246-1.512-.382l-.844-1.462-.362.209-.363-.63.361-.209-.433-.75.772-.446.433.751.679-.392.363.629-.678.392Zm-10.21 16.463c.182-.494.321-.898.417-1.212a3.99 3.99 0 0 0 .166-.914c.017-.291-.034-.539-.152-.744-.108-.186-.236-.307-.384-.362-.149-.055-.315-.03-.497.075-.183.106-.287.249-.314.43-.029.177.015.373.134.586l-.745.43c-.238-.446-.3-.853-.186-1.221.117-.369.366-.664.745-.883.417-.24.8-.313 1.151-.219.35.091.628.316.837.678.164.285.245.601.241.948a3.838 3.838 0 0 1-.133.983c-.088.303-.213.682-.374 1.135l1.615-.932.367.635-2.705 1.562-.329-.57.146-.405Zm2.921-1.57-.348-.602.311-3.596.892-.515 1.442 2.496.482-.278.385.668-.482.278.449.778-.766.442-.449-.777-1.916 1.106Zm.612-3.478-.155 2.324 1.123-.648-.968-1.676Zm3.938 1.939a.566.566 0 0 1-.417.073.51.51 0 0 1-.318-.247.487.487 0 0 1-.052-.394c.041-.14.13-.25.269-.33a.523.523 0 0 1 .41-.062.49.49 0 0 1 .315.242.51.51 0 0 1 .055.399.538.538 0 0 1-.262.319Zm-.209-2.661c-.364-.631-.537-1.191-.517-1.68.023-.49.3-.888.829-1.194.529-.305 1.01-.345 1.443-.118.437.225.837.654 1.202 1.285.367.635.539 1.2.518 1.694-.018.492-.291.891-.821 1.196-.529.306-1.013.344-1.451.116-.435-.231-.836-.664-1.203-1.299Zm2.201-1.271a4.13 4.13 0 0 0-.446-.647 1.03 1.03 0 0 0-.471-.334c-.17-.058-.357-.028-.561.09-.204.118-.326.266-.364.444-.035.176-.017.367.054.574.073.202.187.438.343.708.16.277.311.501.454.672.14.167.297.279.47.334.171.053.359.02.564-.098.204-.118.326-.265.367-.439.038-.178.02-.369-.054-.574a4.925 4.925 0 0 0-.356-.73Zm2.039.517-.347-.603.311-3.596.892-.515 1.442 2.497.481-.279.386.668-.482.279.449.777-.766.443-.449-.778-1.917 1.107Zm.613-3.479-.155 2.324 1.122-.648-.967-1.676Z"/>
      <path fill="#D9D9D9" d="m769.062 287.514 43.802-25.289 1.053 1.825-43.802 25.29-1.053-1.826Zm2.634 4.563 24.639-14.225 1.054 1.825-24.639 14.225-1.054-1.825Z"/>
      <path fill="#000" d="m766.696 279.013 2.099-1.212.585 1.013-3.376 1.949-3.678-6.369 1.278-.738 3.092 5.357Zm5.788-1.882a3.097 3.097 0 0 1-1.498.439 2.768 2.768 0 0 1-1.454-.389c-.447-.269-.82-.662-1.119-1.179-.298-.517-.449-1.039-.452-1.564a2.74 2.74 0 0 1 .413-1.455 3.1 3.1 0 0 1 1.133-1.093 3.097 3.097 0 0 1 1.513-.435 2.685 2.685 0 0 1 1.458.375c.459.262.838.652 1.137 1.169.298.517.443 1.042.434 1.574a2.803 2.803 0 0 1-.417 1.47 3.183 3.183 0 0 1-1.148 1.088Zm-.642-1.113c.231-.134.415-.313.553-.539.14-.235.206-.5.197-.795-.008-.295-.105-.604-.291-.927-.278-.48-.618-.775-1.021-.883a1.413 1.413 0 0 0-1.148.14 1.412 1.412 0 0 0-.695.925c-.096.396-.005.834.272 1.315.278.48.61.783.999.907.391.115.769.068 1.134-.143Zm3.183-7.314c.378-.217.753-.333 1.127-.346.37-.019.706.043 1.007.185l-.416-.721 1.286-.742 2.94 5.092c.271.468.417.939.439 1.413.026.48-.088.935-.343 1.366-.25.437-.644.81-1.179 1.119-.718.414-1.404.588-2.06.52-.649-.071-1.171-.378-1.566-.921l1.269-.732c.2.192.448.292.745.3.305.01.617-.077.933-.259.371-.215.607-.501.708-.86.105-.352.027-.753-.232-1.204l-.454-.784a2.233 2.233 0 0 1-.341.988 2.317 2.317 0 0 1-.849.806 2.508 2.508 0 0 1-1.358.346 2.682 2.682 0 0 1-1.371-.437c-.433-.286-.799-.687-1.097-1.204-.295-.511-.456-1.022-.484-1.534-.021-.514.08-.978.304-1.392a2.58 2.58 0 0 1 .992-.999Zm3.177 1.646c-.179-.31-.393-.54-.641-.688a1.438 1.438 0 0 0-.788-.227 1.491 1.491 0 0 0-.771.202 1.493 1.493 0 0 0-.557.553c-.134.231-.2.497-.198.795.005.29.095.586.271.891.175.304.391.536.646.697.258.152.522.23.793.236.277.002.531-.063.762-.197.238-.137.426-.323.566-.558.137-.241.203-.506.198-.795a1.92 1.92 0 0 0-.281-.909Zm2.195-1.292c-.295-.511-.456-1.022-.483-1.533a2.629 2.629 0 0 1 .303-1.392c.23-.417.561-.75.993-.999.377-.218.75-.332 1.117-.341.374-.013.713.047 1.017.18l-.417-.721 1.287-.743 2.919 5.055-1.287.743-.427-.739a2.218 2.218 0 0 1-.342.988 2.398 2.398 0 0 1-.863.803 2.505 2.505 0 0 1-1.357.346 2.72 2.72 0 0 1-1.363-.443c-.432-.285-.798-.687-1.097-1.204Zm3.99-2.279c-.179-.31-.393-.539-.641-.688a1.449 1.449 0 0 0-.788-.227 1.507 1.507 0 0 0-.772.202 1.498 1.498 0 0 0-.556.553 1.54 1.54 0 0 0-.198.796c.005.289.095.586.27.89.176.304.391.537.647.698.257.151.522.229.793.235.277.002.531-.063.762-.197.237-.137.426-.323.566-.558.137-.241.203-.506.198-.795-.008-.295-.102-.598-.281-.909Zm3.834-5.681c.602-.348 1.2-.437 1.792-.268.589.163 1.08.585 1.473 1.266l1.713 2.966-1.278.738-1.612-2.793c-.232-.401-.51-.65-.833-.747-.327-.104-.664-.055-1.011.145-.353.204-.57.475-.65.813-.078.329-.001.694.231 1.096l1.612 2.792-1.277.738-2.919-5.056 1.277-.737.364.63c.044-.318.161-.613.353-.886.194-.282.449-.514.765-.697Zm10.095-3.346c.397-.14.796-.131 1.196.027.399.159.708.427.926.804.197.341.285.691.266 1.051-.017.35-.141.69-.373 1.018-.232.329-.564.618-.996.867l-2.747 1.586-3.677-6.369 2.628-1.518c.432-.249.843-.393 1.234-.432.397-.043.747.015 1.049.173.308.154.554.39.737.706.214.371.293.739.236 1.105a1.808 1.808 0 0 1-.479.982Zm-2.61.874 1.168-.674c.304-.176.499-.378.586-.607.084-.234.052-.479-.096-.735-.147-.255-.344-.406-.589-.451-.245-.045-.519.02-.823.196l-1.168.674.922 1.597Zm2.846 1.959c.31-.18.508-.391.594-.636.092-.248.061-.505-.093-.773-.158-.274-.373-.434-.643-.481-.274-.053-.566.011-.876.19l-1.259.727.99 1.715 1.287-.742Zm6.192-2.079a3.11 3.11 0 0 1-1.498.439 2.768 2.768 0 0 1-1.454-.389c-.447-.269-.82-.662-1.119-1.179-.298-.518-.449-1.039-.453-1.564a2.741 2.741 0 0 1 .414-1.455 3.092 3.092 0 0 1 1.133-1.093 3.097 3.097 0 0 1 1.513-.435 2.668 2.668 0 0 1 1.458.375c.459.262.838.651 1.137 1.168.298.518.443 1.042.434 1.575a2.8 2.8 0 0 1-.417 1.469 3.186 3.186 0 0 1-1.148 1.089Zm-.643-1.113c.232-.134.416-.313.553-.539.141-.235.206-.5.198-.795-.008-.296-.105-.604-.291-.927-.278-.481-.618-.775-1.021-.883a1.413 1.413 0 0 0-1.148.14 1.417 1.417 0 0 0-.696.924c-.095.396-.005.835.273 1.315.277.481.61.784.999.908.39.115.768.067 1.133-.143Zm6.088-8.881 1.169 9.254-1.36.785-.359-3.151-4.871-3.758 1.433-.827 3.344 2.778-.716-4.296 1.36-.785Z"/>
      <path fill="url(#g)" d="M729.926 304.026c-4.365-7.56-1.775-17.226 5.785-21.591 7.56-4.365 17.226-1.774 21.591 5.785 4.365 7.56 1.775 17.227-5.785 21.591-7.56 4.365-17.227 1.775-21.591-5.785Z"/>
    </g>
    <g clip-path="url(#h)">
      <path fill="#fff" d="m956.596 198.911 225.6-130.25 281.874 488.22-225.6 130.25z"/>
      <path fill="#ADE2DF" d="m956.596 198.911 225.6-130.25 147.282 255.1-225.6 130.25z"/>
      <path fill="#fff" d="m1064.19 211.605 57.27-33.064 1.67 2.893-57.27 33.063-1.67-2.892Zm3.34 5.784 32.39-18.702 1.67 2.892-32.39 18.703-1.67-2.893Z"/>
      <path fill="#000" d="m1059.95 198.249 3.32-1.92.92 1.587-5.35 3.089-5.76-9.98 2.02-1.169 4.85 8.393Zm9.16-3c-.77.445-1.56.679-2.37.702a4.388 4.388 0 0 1-2.3-.601c-.7-.42-1.29-1.034-1.76-1.845-.46-.81-.7-1.628-.7-2.453.01-.831.23-1.594.66-2.29.43-.704 1.03-1.279 1.8-1.724.77-.446 1.57-.677 2.4-.696.82-.028 1.58.165 2.3.578.72.409 1.32 1.018 1.78 1.828.47.81.7 1.634.68 2.47a4.408 4.408 0 0 1-.67 2.312c-.43.695-1.04 1.268-1.82 1.719Zm-1.01-1.744c.37-.212.66-.495.88-.85.22-.37.33-.787.32-1.251-.01-.464-.17-.949-.46-1.454-.43-.753-.97-1.213-1.6-1.38a2.265 2.265 0 0 0-1.82.229c-.58.333-.94.819-1.1 1.457-.16.623-.02 1.311.42 2.064.43.753.96 1.226 1.57 1.419.61.178 1.21.1 1.79-.234Zm5.09-11.514c.59-.345 1.19-.53 1.78-.553.58-.033 1.11.062 1.59.283l-.65-1.129 2.03-1.177 4.61 7.978c.42.734.65 1.473.68 2.218.04.754-.14 1.47-.55 2.148-.4.689-1.02 1.277-1.87 1.767-1.14.657-2.22.934-3.26.833-1.02-.107-1.85-.585-2.47-1.435l2.01-1.16c.32.301.71.456 1.18.465.48.013.97-.125 1.47-.414.59-.339.97-.791 1.13-1.355.17-.555.05-1.185-.36-1.89l-.71-1.23c-.04.522-.23 1.041-.55 1.556-.31.509-.75.933-1.34 1.273-.68.389-1.39.574-2.15.553a4.18 4.18 0 0 1-2.16-.676c-.69-.445-1.26-1.073-1.73-1.883-.46-.801-.71-1.603-.75-2.406-.03-.809.13-1.539.49-2.189.37-.657.89-1.182 1.58-1.577Zm5 2.561c-.28-.486-.61-.845-1.01-1.077a2.255 2.255 0 0 0-1.24-.35c-.44-.001-.84.107-1.22.324-.37.217-.67.508-.88.872-.22.365-.32.782-.32 1.252 0 .454.14.92.42 1.396.27.477.61.841 1.02 1.091.4.236.82.358 1.25.365.43.001.84-.104 1.2-.315.38-.217.68-.511.9-.881.22-.38.32-.797.32-1.252-.01-.464-.16-.939-.44-1.425Zm3.48-2.046c-.46-.801-.71-1.603-.75-2.406-.03-.808.13-1.538.49-2.189.36-.656.89-1.182 1.57-1.577.6-.345 1.19-.526 1.77-.544.59-.023 1.13.068 1.6.275l-.65-1.13 2.04-1.177 4.57 7.921-2.03 1.177-.67-1.158c-.05.522-.23 1.04-.55 1.555-.32.5-.77.923-1.37 1.268-.67.389-1.39.574-2.15.553-.74-.026-1.46-.254-2.15-.684-.68-.446-1.25-1.074-1.72-1.884Zm6.32-3.61c-.28-.486-.62-.845-1.01-1.077a2.247 2.247 0 0 0-1.24-.35c-.44-.002-.85.106-1.22.323a2.42 2.42 0 0 0-.89.873c-.21.364-.31.781-.31 1.251 0 .454.14.92.42 1.397.27.476.61.84 1.01 1.091.41.236.83.357 1.25.364.44.002.84-.103 1.21-.315.38-.217.68-.511.9-.881.22-.38.32-.797.32-1.251-.01-.464-.16-.939-.44-1.425Zm6.1-8.956c.95-.55 1.9-.695 2.83-.434.93.251 1.7.911 2.32 1.978l2.68 4.647-2.02 1.169-2.53-4.375c-.36-.63-.8-1.019-1.31-1.169-.51-.16-1.05-.081-1.59.236-.56.323-.91.751-1.04 1.283-.12.517 0 1.09.36 1.719l2.52 4.376-2.02 1.168-4.57-7.921 2.02-1.168.57.986c.07-.499.26-.963.57-1.393.3-.445.71-.812 1.21-1.102Zm15.97-5.333a2.628 2.628 0 0 1 1.89.034c.63.247 1.12.665 1.46 1.256.31.534.45 1.084.41 1.649-.03.551-.23 1.085-.6 1.603-.36.518-.89.975-1.58 1.37l-4.35 2.512-5.76-9.98 4.16-2.403c.69-.395 1.34-.625 1.96-.69.63-.07 1.18.018 1.65.264.49.241.88.609 1.16 1.105.34.581.46 1.159.37 1.733a2.892 2.892 0 0 1-.77 1.547Zm-4.13 1.394 1.85-1.069c.48-.278.8-.597.93-.957.14-.369.09-.754-.14-1.155-.23-.4-.54-.635-.93-.704-.39-.069-.82.036-1.3.314l-1.85 1.069 1.44 2.502Zm4.48 3.055c.5-.284.81-.618.95-1.003.15-.39.1-.794-.14-1.214-.25-.429-.59-.679-1.02-.75-.43-.081-.89.02-1.38.304l-2 1.152 1.56 2.688 2.03-1.177Zm9.8-3.313c-.77.446-1.56.679-2.37.702a4.344 4.344 0 0 1-2.29-.601c-.71-.419-1.29-1.034-1.76-1.844-.47-.811-.7-1.628-.7-2.454a4.37 4.37 0 0 1 .66-2.289c.43-.705 1.03-1.28 1.8-1.725.77-.445 1.57-.677 2.39-.696.82-.028 1.59.165 2.3.579.73.408 1.32 1.017 1.79 1.827s.69 1.634.67 2.47c0 .831-.23 1.602-.67 2.312-.43.696-1.04 1.269-1.82 1.719Zm-1-1.744c.36-.211.65-.495.87-.85.23-.37.33-.787.32-1.251-.01-.464-.16-.949-.45-1.454-.44-.753-.97-1.213-1.61-1.379-.63-.182-1.23-.106-1.81.228-.58.334-.95.82-1.11 1.458-.15.623-.01 1.31.42 2.063.44.753.96 1.226 1.57 1.419.62.178 1.22.1 1.8-.234Zm9.68-13.998 1.78 14.53-2.16 1.243-.54-4.947-7.67-5.868 2.27-1.311 5.26 4.34-1.09-6.743 2.15-1.244Z"/>
      <path fill="url(#i)" d="M996.463 239.91c-7.746-13.418-3.279-30.501 9.977-38.156 13.26-7.654 30.29-2.982 38.04 10.436 7.74 13.418 3.27 30.5-9.98 38.155-13.26 7.655-30.29 2.983-38.037-10.435Z"/>
      <path fill="#fff" d="m1035.2 307.011 57.27-33.064 1.67 2.893-57.27 33.063-1.67-2.892Z"/>
      <path fill="#000" d="m1029.8 293.977 1.78 3.074c.19.336.43.543.71.621.28.072.58.015.91-.172.33-.19.53-.424.61-.702.07-.284.01-.594-.18-.93l-1.78-3.074 1.02-.589 1.77 3.066c.25.422.36.835.34 1.237-.02.396-.14.757-.37 1.085-.22.326-.52.599-.91.819-.37.217-.76.342-1.15.373-.39.029-.76-.05-1.1-.236-.35-.191-.65-.498-.89-.92l-1.77-3.066 1.01-.586Zm5.99-1.33c.02-.255.11-.508.27-.757.16-.257.39-.471.68-.641.35-.198.7-.293 1.08-.286.37.004.73.115 1.07.331.33.209.62.515.85.918.24.403.36.809.38 1.216.02.401-.07.767-.25 1.099-.17.33-.43.594-.78.792a1.866 1.866 0 0 1-1.68.139l1.41 2.44-1.02.585-3.36-5.819 1.02-.586.33.569Zm2.92.163a1.39 1.39 0 0 0-.51-.524c-.2-.12-.4-.178-.62-.173a1.211 1.211 0 0 0-1.2 1.233c.01.232.08.466.21.703.14.237.31.416.51.535.2.117.41.177.62.18.22-.005.42-.06.6-.166.19-.108.34-.256.44-.443.11-.19.16-.4.16-.631 0-.234-.07-.472-.21-.714Zm1.52-.859c-.24-.408-.36-.812-.36-1.213-.01-.406.08-.778.29-1.117.2-.344.49-.627.88-.85.49-.287.98-.401 1.44-.341.47.053.89.267 1.25.644l-1.09.632a.878.878 0 0 0-.53-.227.948.948 0 0 0-.59.143c-.29.167-.46.404-.51.71-.05.302.03.642.25 1.021.22.375.47.618.76.729.29.107.58.076.87-.091.41-.237.57-.572.49-1.005l1.09-.631c.14.491.11.957-.07 1.398-.18.441-.52.803-1.01 1.088-.39.223-.78.337-1.18.344-.39.002-.76-.1-1.11-.306-.35-.21-.64-.52-.87-.928Zm7.57-1.659c-.39.223-.78.341-1.19.353-.4.008-.79-.091-1.14-.296a2.469 2.469 0 0 1-.88-.917c-.23-.403-.35-.81-.35-1.222.01-.414.12-.795.34-1.142.21-.352.51-.639.9-.862.39-.223.79-.34 1.2-.35.41-.015.79.08 1.15.285.36.202.66.505.89.908.23.403.34.813.33 1.23 0 .415-.12.799-.34 1.154-.21.347-.52.633-.91.859Zm-.5-.868c.18-.106.33-.247.44-.425.11-.185.17-.393.16-.624 0-.231-.08-.473-.22-.724-.22-.375-.49-.603-.81-.685-.31-.09-.61-.051-.9.116-.29.167-.48.41-.56.728-.08.311-.01.654.21 1.028.22.375.48.61.78.705.31.088.61.048.9-.119Zm5.97-7.708c.5-.285.98-.364 1.45-.238.47.119.86.444 1.17.975l1.34 2.312-1.02.585-1.25-2.177c-.18-.308-.4-.497-.65-.566-.26-.074-.52-.032-.8.127-.27.159-.44.369-.51.63-.07.253-.01.534.17.842l1.25 2.177-1.01.585-1.26-2.177c-.18-.308-.39-.497-.64-.566-.26-.074-.52-.032-.8.127-.28.162-.45.373-.52.634-.07.253-.01.534.17.842l1.25 2.177-1.01.585-2.28-3.941 1.02-.585.27.476c.04-.241.13-.467.28-.679.15-.215.35-.394.6-.536.31-.181.63-.276.95-.285.32-.015.62.06.89.224 0-.303.09-.594.25-.874.17-.282.4-.507.69-.674Zm2.89-2.214a.755.755 0 0 1-.55.095.63.63 0 0 1-.41-.319.624.624 0 0 1-.07-.513.737.737 0 0 1 .35-.43.699.699 0 0 1 .54-.084.59.59 0 0 1 .42.308c.1.166.12.341.06.524a.723.723 0 0 1-.34.419Zm.77.181 2.27 3.941-1.01.586-2.28-3.942 1.02-.585Zm3.19-1.919c.48-.276.95-.349 1.42-.221.46.124.85.452 1.15.983l1.34 2.312-1.02.586-1.25-2.177c-.18-.313-.4-.507-.66-.581-.26-.079-.52-.039-.8.12-.28.162-.45.376-.52.641-.06.258 0 .544.18.857l1.26 2.177-1.02.585-2.27-3.941 1.01-.586.29.491c.03-.249.13-.48.28-.695.15-.222.36-.406.61-.551Zm4.13-2.395c.3-.173.6-.265.89-.278.29-.017.56.029.8.139l-.33-.562 1.02-.589 2.29 3.97c.22.365.33.733.34 1.104.02.376-.07.733-.28 1.072-.2.343-.51.638-.93.883-.57.329-1.12.469-1.63.42a1.679 1.679 0 0 1-1.24-.712l1.01-.581c.16.149.35.226.59.23.24.006.48-.063.74-.208.29-.17.48-.396.56-.678.09-.276.03-.59-.18-.941l-.35-.612c-.02.26-.11.519-.28.776a1.83 1.83 0 0 1-.67.637c-.34.195-.7.288-1.08.279a2.158 2.158 0 0 1-1.08-.334c-.34-.221-.62-.533-.86-.937a2.635 2.635 0 0 1-.37-1.198c-.01-.403.07-.767.25-1.091.18-.328.45-.591.79-.789Zm2.5 1.27c-.14-.242-.31-.42-.5-.535-.2-.12-.41-.178-.62-.173-.22 0-.43.054-.61.163-.19.108-.34.254-.45.436-.1.182-.16.39-.16.624 0 .227.07.458.21.696.14.237.31.418.51.542.2.117.41.177.62.18.22 0 .42-.053.6-.159.19-.109.34-.255.46-.44.1-.19.16-.398.16-.624a1.539 1.539 0 0 0-.22-.71Zm3.94-4.144c.03-.256.12-.508.28-.758.16-.257.39-.471.68-.641.34-.198.7-.293 1.07-.286.38.005.73.115 1.07.331.34.209.63.515.86.918.23.403.36.809.37 1.217.02.4-.06.766-.24 1.099-.18.329-.44.593-.78.791-.29.17-.59.261-.88.274-.3.009-.56-.036-.81-.135l1.41 2.44-1.01.585-3.36-5.819 1.01-.586.33.57Zm2.92.162a1.3 1.3 0 0 0-.5-.524c-.2-.12-.41-.177-.62-.173-.21.002-.41.057-.6.166a1.15 1.15 0 0 0-.44.443c-.11.183-.16.391-.16.625 0 .231.07.465.21.702.14.237.3.416.5.536.21.116.41.176.63.179.21-.004.41-.06.6-.166a1.177 1.177 0 0 0 .59-1.074c0-.234-.07-.472-.21-.714Zm1.52-.873c-.23-.398-.36-.797-.38-1.198-.01-.403.07-.767.25-1.092.18-.327.45-.59.79-.788.3-.173.59-.264.89-.274.29-.012.56.033.8.135l-.33-.562 1.02-.589 2.28 3.941-1.02.589-.33-.576c-.03.26-.12.519-.28.776-.16.25-.39.461-.69.634a1.98 1.98 0 0 1-1.07.279 2.163 2.163 0 0 1-1.08-.338c-.34-.221-.62-.534-.85-.937Zm3.16-1.808a1.472 1.472 0 0 0-.5-.536c-.2-.119-.41-.177-.62-.172-.22 0-.43.054-.61.163-.19.108-.34.254-.45.436-.1.182-.16.39-.16.624 0 .226.07.458.21.695.14.238.31.418.51.543.2.117.41.177.62.18.22 0 .42-.053.61-.159a1.4 1.4 0 0 0 .45-.44c.11-.19.16-.398.16-.625a1.538 1.538 0 0 0-.22-.709Zm4.71-5.348.87 7.239-1.08.623-.26-2.465-3.83-2.914 1.14-.656 2.62 2.155-.54-3.359 1.08-.623Zm5.5-3.249c.49-.284.97-.363 1.44-.237.48.118.87.443 1.17.974l1.34 2.312-1.01.586-1.26-2.177c-.18-.309-.39-.497-.65-.567-.25-.074-.52-.031-.79.128-.28.159-.45.368-.52.629-.06.253-.01.534.17.842l1.26 2.177-1.02.586-1.25-2.177c-.18-.309-.4-.497-.65-.567-.25-.074-.52-.031-.79.128-.28.161-.46.373-.53.633-.06.254-.01.534.17.843l1.26 2.177-1.02.585-2.27-3.942 1.01-.585.28.477c.03-.241.12-.468.27-.68.15-.215.35-.393.6-.535.31-.181.63-.277.95-.286.32-.014.62.061.9.225 0-.303.08-.595.25-.874.17-.283.4-.508.69-.675Zm7.45-1.715c.09.142.15.276.2.401l-2.94 1.693c.19.271.42.435.69.493.28.058.54.012.8-.138.38-.218.56-.531.53-.941l1.1-.631c.1.446.06.887-.13 1.323-.19.432-.52.785-1 1.061-.38.223-.78.341-1.19.353-.4.005-.78-.096-1.13-.304-.34-.211-.63-.518-.87-.921a2.602 2.602 0 0 1-.36-1.221c-.01-.406.09-.779.3-1.121.2-.342.51-.627.9-.855.38-.22.77-.336 1.16-.348.4-.014.77.081 1.1.285.34.196.62.487.84.871Zm-1.21.321a.879.879 0 0 0-.64-.448c-.27-.051-.54 0-.8.154-.26.145-.42.343-.51.595-.08.245-.07.511.05.799l1.9-1.1Zm3.06-3.974c.47-.276.95-.35 1.41-.221.47.124.85.452 1.16.983l1.33 2.312-1.01.586-1.26-2.177c-.18-.314-.39-.507-.65-.581-.26-.079-.52-.039-.8.12-.28.162-.45.375-.52.641-.06.258 0 .543.18.856l1.26 2.177-1.02.586-2.27-3.942 1.01-.585.28.491c.04-.249.13-.481.29-.695.15-.223.35-.406.61-.551Zm4.25-1.287 1.1 1.907c.07.132.16.211.26.237.1.018.23-.018.38-.107l.47-.272.49.84-.64.368c-.85.493-1.52.332-1.99-.484l-1.1-1.9-.47.276-.48-.818.48-.276-.56-.974 1.02-.59.56.975.9-.519.47.818-.89.519Zm5 1.361c-.33.19-.66.303-.98.34-.33.032-.63-.007-.9-.117a1.342 1.342 0 0 1-.63-.52l1.02-.589c.11.14.26.223.44.247.2.022.39-.025.59-.139.19-.111.32-.236.38-.373.07-.14.07-.269 0-.388-.07-.128-.2-.184-.37-.167-.17.008-.42.059-.75.15-.34.102-.63.17-.87.206-.23.033-.46.011-.69-.064-.22-.079-.41-.251-.57-.517a1.156 1.156 0 0 1-.15-.706c.02-.255.12-.504.3-.745.18-.243.43-.458.76-.645.47-.276.92-.378 1.35-.305.41.068.75.293 1.01.674l-.97.561a.555.555 0 0 0-.41-.253c-.17-.028-.36.015-.56.129a.976.976 0 0 0-.37.346.388.388 0 0 0 .02.362c.08.132.2.195.38.188.17-.011.42-.064.75-.157.33-.096.61-.161.84-.193.23-.033.46-.008.69.075.23.076.43.243.58.501.13.228.19.469.16.725-.02.252-.12.501-.31.744-.17.236-.42.446-.74.63Zm-56.58 78.708c-2.29-3.978-.89-9.086 3.13-11.41l34.02-19.638c4.02-2.324 9.15-.983 11.44 2.994l19.41 33.608c2.29 3.978.89 9.086-3.13 11.41l-34.02 19.638c-4.02 2.324-9.15.984-11.44-2.994l-19.41-33.608Z"/>
      <path fill="#fff" d="M1074.33 332.212c-.62.358-1.27.538-1.96.541-.69.002-1.34-.17-1.94-.518a4.047 4.047 0 0 1-1.49-1.528c-.38-.659-.57-1.337-.57-2.035 0-.704.17-1.355.52-1.951.34-.596.83-1.073 1.45-1.431a3.843 3.843 0 0 1 1.96-.54c.69-.003 1.34.175 1.94.533.61.347 1.1.85 1.48 1.509.38.664.58 1.349.58 2.053 0 .695-.17 1.34-.52 1.936a3.833 3.833 0 0 1-1.45 1.431Zm-.69-1.21c.39-.23.69-.523.89-.879.2-.362.28-.764.25-1.204-.02-.441-.17-.887-.43-1.339-.26-.452-.57-.796-.93-1.033a2.15 2.15 0 0 0-1.17-.374c-.41-.005-.81.107-1.21.337-.4.23-.7.525-.9.884a2.1 2.1 0 0 0-.26 1.195c.02.434.16.877.42 1.329.26.452.58.8.95 1.043.37.244.76.371 1.17.383.41.002.82-.112 1.22-.342Zm3.14-3.867c-.32-.555-.49-1.103-.51-1.644-.02-.547.1-1.047.36-1.499.26-.459.64-.834 1.15-1.127.65-.376 1.29-.518 1.9-.427.62.081 1.18.38 1.67.896l-1.43.827a1.205 1.205 0 0 0-.7-.318 1.21 1.21 0 0 0-.78.18c-.38.219-.6.534-.66.946-.06.406.06.866.36 1.383.29.51.63.843 1.02.999.38.15.76.115 1.14-.104.53-.31.74-.758.62-1.344l1.44-.827c.19.665.17 1.293-.07 1.883-.23.591-.67 1.072-1.31 1.444-.51.292-1.02.439-1.55.439a2.808 2.808 0 0 1-1.47-.437c-.47-.292-.86-.715-1.18-1.27Zm6.69-5.952 1.49 2.594c.11.181.23.289.36.326.13.026.3-.019.5-.136l.62-.356.66 1.143-.84.482c-1.12.646-2 .414-2.64-.696l-1.49-2.585-.63.361-.64-1.113.63-.362-.77-1.326 1.34-.772.76 1.326 1.18-.679.64 1.114-1.17.679Zm-1.88 34.397a83.828 83.828 0 0 0 1.5-4.307c.34-1.127.54-2.209.6-3.245.06-1.036-.12-1.916-.54-2.641-.38-.66-.83-1.088-1.36-1.282-.53-.195-1.12-.105-1.77.271-.65.376-1.03.885-1.12 1.528-.11.63.05 1.324.47 2.082l-2.66 1.534c-.84-1.583-1.06-3.028-.65-4.334.42-1.313 1.31-2.361 2.66-3.143 1.49-.856 2.86-1.119 4.11-.789 1.24.318 2.23 1.118 2.97 2.399.58 1.009.87 2.131.85 3.366a13.526 13.526 0 0 1-.49 3.489c-.31 1.079-.76 2.424-1.34 4.036l5.76-3.326 1.3 2.252-9.64 5.569-1.17-2.018.52-1.441Zm10.42-5.6-1.23-2.135 1.14-12.771 3.18-1.838 5.11 8.851 1.72-.992 1.37 2.368-1.72.993 1.59 2.756-2.73 1.578-1.6-2.756-6.83 3.946Zm2.21-12.356-.57 8.252 4-2.312-3.43-5.94Z"/>
      <path fill="#000" d="m1117.49 304.894-.89.514-6.7-3.332 3.12 5.399-.89.514-3.93-6.79.89-.514 6.7 3.322-3.12-5.389.89-.514 3.93 6.79Zm4.75-6.569c.09.168.19.352.28.552l-4.29 2.473c.34.507.75.815 1.25.925.5.1.99.014 1.46-.257.38-.222.65-.494.81-.816.15-.332.2-.677.13-1.036l.96-.553c.15.595.1 1.179-.14 1.752-.25.566-.69 1.033-1.33 1.402-.51.294-1.03.444-1.56.451a2.838 2.838 0 0 1-1.5-.421c-.47-.29-.87-.711-1.18-1.262-.32-.551-.49-1.098-.51-1.642-.02-.543.11-1.039.38-1.489.27-.461.67-.842 1.19-1.143.51-.293 1.02-.443 1.54-.448.52-.006 1 .126 1.43.395.44.258.8.63 1.08 1.117Zm-1.03.346a1.863 1.863 0 0 0-.72-.736c-.3-.16-.61-.226-.94-.199a2.1 2.1 0 0 0-.96.297c-.45.26-.76.624-.91 1.094-.15.466-.1.966.15 1.498l3.38-1.954Zm2.29-3.383 1.81 3.142c.15.26.31.412.49.459.17.039.39-.02.66-.178l.66-.378.43.749-.8.463c-.49.286-.93.387-1.31.303-.38-.084-.72-.385-1.02-.904l-1.81-3.142-.7.401-.42-.73.7-.401-.78-1.342.89-.514.78 1.342 1.39-.807.43.729-1.4.808Zm4.66-2.69-1.13.65 2.66 4.601-.89.514-2.66-4.601-.69.401-.42-.73.69-.401-.22-.379c-.34-.597-.44-1.12-.29-1.569.15-.46.57-.887 1.25-1.283l.43.74c-.39.226-.62.463-.7.713-.07.24 0 .535.2.885l.22.379 1.12-.649.43.729Zm.42-3.71 4.16 7.199-.89.514-4.16-7.199.89-.514Zm2.56-.139a.68.68 0 0 1-.53.073.678.678 0 0 1-.43-.326.703.703 0 0 1-.07-.53.677.677 0 0 1 .33-.424.63.63 0 0 1 .51-.062c.19.049.33.158.43.327.1.168.12.345.07.529a.63.63 0 0 1-.31.413Zm.93.617 3.08 5.331-.89.514-3.08-5.331.89-.514Zm7.39 2.84-2.42-1.25-.07 2.69-.93.537.2-3.646-3.28-1.686 1.01-.581 2.41 1.24.07-2.675.93-.536-.2 3.63 3.29 1.695-1.01.582Zm-4 30.764c.39.674.58 1.409.58 2.205 0 .775-.21 1.549-.65 2.322-.44.752-1.09 1.419-1.94 2l.91 1.576-1.23.708-.92-1.595c-1.35.621-2.6.827-3.76.615-1.17-.224-2.1-.899-2.78-2.025l2.87-1.66c.62.889 1.42 1.18 2.4.872l-2.14-3.714c-1.06.298-1.94.492-2.63.584-.7.091-1.4-.005-2.11-.287-.71-.283-1.32-.871-1.84-1.766-.65-1.128-.79-2.277-.4-3.448.39-1.178 1.19-2.184 2.39-3.019l-.91-1.575 1.23-.708.91 1.575c1.29-.605 2.48-.793 3.59-.566 1.11.221 2.04.876 2.79 1.965l-2.89 1.671c-.26-.354-.58-.6-.97-.74a1.993 1.993 0 0 0-1.23-.093l2.12 3.676c1.11-.308 2-.503 2.68-.587.69-.104 1.39-.015 2.1.267.7.27 1.31.852 1.83 1.747Zm-10.52-1.917c.25.428.58.704.99.829.41.111.9.111 1.48-.001l-1.94-3.364c-.42.33-.68.716-.79 1.156-.1.44-.02.9.26 1.38Zm7.25 6.266c.43-.371.69-.79.78-1.256.1-.474.03-.931-.23-1.372-.24-.428-.58-.694-.99-.798-.42-.104-.93-.097-1.53.022l1.97 3.404Zm1.15-13.474-1.45-2.509 4.62-2.668 8.19 14.178-2.76 1.594-6.74-11.669-1.86 1.074Zm6.95-4.011-1.45-2.509 4.62-2.667 8.18 14.178-2.76 1.594-6.73-11.67-1.86 1.074Zm15.59 2.741.92 6.761-1.73.996-1.91-6.185 2.72-1.572Zm4.09-3.861c.43.512.91.82 1.45.924.54.085 1.12-.05 1.74-.405.79-.457 1.17-1.12 1.15-1.988-.03-.881-.51-2.112-1.42-3.694-.05.585-.28 1.149-.68 1.692-.39.536-.89.981-1.51 1.335-.82.473-1.65.732-2.51.779a4.454 4.454 0 0 1-2.44-.64c-.78-.466-1.45-1.185-2.02-2.158-.83-1.439-1.06-2.823-.71-4.153.35-1.343 1.26-2.435 2.71-3.276 1.82-1.048 3.44-1.196 4.86-.444 1.43.744 2.84 2.303 4.21 4.676.97 1.685 1.62 3.151 1.95 4.397.34 1.239.32 2.34-.06 3.303-.37.956-1.16 1.781-2.36 2.475-.94.546-1.85.829-2.73.85-.88.007-1.67-.184-2.37-.574a5.39 5.39 0 0 1-1.76-1.66l2.5-1.439Zm.01-4.674c.66-.384 1.07-.894 1.21-1.53.14-.636.01-1.304-.39-2.005-.44-.765-.99-1.236-1.64-1.415-.64-.199-1.31-.1-2 .299-.69.398-1.11.936-1.26 1.613-.15.657-.02 1.342.39 2.055.4.687.92 1.14 1.55 1.36.65.199 1.36.073 2.14-.377Zm11.99-2.255c.43.512.91.82 1.45.924.55.085 1.12-.05 1.74-.405.79-.457 1.17-1.12 1.15-1.988-.03-.881-.5-2.112-1.42-3.694-.05.585-.28 1.149-.68 1.692-.39.536-.89.981-1.51 1.335-.81.473-1.65.732-2.51.779a4.454 4.454 0 0 1-2.44-.64c-.78-.466-1.45-1.185-2.01-2.158-.84-1.439-1.07-2.823-.72-4.153.35-1.343 1.26-2.435 2.71-3.276 1.82-1.048 3.44-1.196 4.86-.444 1.44.744 2.84 2.303 4.21 4.676.97 1.685 1.62 3.151 1.95 4.397.34 1.239.32 2.34-.06 3.303-.37.956-1.16 1.781-2.36 2.474-.94.547-1.85.83-2.73.851-.88.007-1.67-.184-2.37-.574a5.36 5.36 0 0 1-1.75-1.66l2.49-1.439Zm.01-4.674c.66-.384 1.07-.894 1.21-1.53.15-.636.02-1.304-.39-2.005-.44-.765-.99-1.237-1.63-1.415-.65-.199-1.31-.1-2 .299-.69.398-1.12.936-1.27 1.613-.15.657-.02 1.342.39 2.055.4.687.92 1.14 1.56 1.36.64.199 1.35.073 2.13-.377Zm79.08-38.368 19.09-11.021 1.34 2.313-19.09 11.022-1.34-2.314Zm-106.95 104.641-.48-.823 1.78-1.029 4.14 7.167-.87.504-3.66-6.345-.91.526Zm6.02.011c-.44.059-.83.004-1.18-.164s-.64-.451-.87-.847c-.2-.357-.3-.727-.3-1.109.01-.39.13-.764.37-1.122.24-.369.6-.692 1.08-.969.48-.277.94-.427 1.37-.448.44-.032.82.048 1.16.241.34.182.62.451.82.808.22.383.32.777.29 1.181-.03.397-.17.764-.44 1.099.47-.1.91-.058 1.32.128.41.176.74.485 1 .928.25.43.36.865.35 1.305-.02.434-.16.848-.43 1.242-.27.383-.65.713-1.13.99-.48.278-.95.436-1.41.476a2.4 2.4 0 0 1-1.28-.257c-.39-.207-.7-.525-.95-.955-.26-.443-.36-.888-.32-1.337.05-.448.23-.845.55-1.19Zm1.68-3.019c-.23-.403-.54-.641-.91-.713-.38-.073-.79.019-1.24.274-.43.252-.71.56-.84.924s-.07.751.17 1.16c.21.37.51.593.9.668.39.072.8-.013 1.22-.254.42-.244.7-.553.83-.927.13-.385.09-.762-.13-1.132Zm-.3 2.753c-.47.27-.79.607-.95 1.009-.17.396-.12.822.15 1.278.24.423.58.682 1.01.775.44.09.9-.005 1.39-.286.49-.281.8-.632.93-1.054.14-.422.08-.844-.16-1.267-.26-.443-.6-.696-1.02-.76-.43-.07-.88.032-1.35.305Zm10.34-8.072a2.419 2.419 0 0 0-1.33-.473c-.48-.024-.95.097-1.41.364-.46.266-.82.619-1.06 1.059-.24.429-.35.914-.32 1.455.03.53.2 1.066.51 1.608s.69.957 1.14 1.247c.45.286.92.435 1.42.448.5.003.98-.129 1.44-.395.64-.372 1.06-.88 1.24-1.524.19-.644.11-1.329-.21-2.057l-2.64 1.521-.42-.733 3.55-2.052.4.694c.28.598.41 1.218.4 1.862a3.832 3.832 0 0 1-.5 1.782c-.32.544-.77.984-1.35 1.32-.61.354-1.26.528-1.94.522-.68-.012-1.32-.2-1.93-.564-.6-.367-1.09-.888-1.48-1.562-.39-.674-.59-1.363-.61-2.066a3.714 3.714 0 0 1 1.89-3.378c.7-.405 1.42-.581 2.17-.527.75.049 1.44.334 2.07.852l-1.03.597Zm6.54-4.478 1.49 9.796-.89.514-.49-3.208-5.2-4.164.96-.552 4.17 3.46-.93-5.331.89-.515Zm7.06-4.204c.4-.234.81-.353 1.23-.356.42-.011.82.106 1.2.35.39.245.72.618 1.01 1.121l1.85 3.202-.85.492-1.77-3.073c-.32-.542-.69-.88-1.11-1.015-.42-.145-.85-.091-1.28.16-.45.259-.72.617-.81 1.074-.09.451.02.96.35 1.529l1.73 2.994-.85.492-1.78-3.073c-.31-.542-.68-.88-1.1-1.015-.42-.145-.85-.091-1.29.16-.44.259-.71.617-.8 1.074-.1.451.02.96.35 1.529l1.73 2.994-.87.497-3.13-5.432.86-.498.45.783c.01-.382.11-.732.31-1.048.2-.32.47-.58.82-.78.44-.252.88-.372 1.34-.361.45.012.87.169 1.27.47-.08-.467-.01-.903.2-1.308.21-.404.52-.725.94-.962Zm-4.75 37.533c.39.688.59 1.436.6 2.244.01.788-.21 1.573-.64 2.355-.44.761-1.08 1.434-1.95 2.019l.93 1.607-1.23.711-.94-1.626c-1.35.622-2.61.822-3.79.6-1.18-.236-2.12-.928-2.81-2.076l2.89-1.668c.62.908 1.43 1.208 2.42.903l-2.19-3.788c-1.06.295-1.94.487-2.65.575-.7.088-1.41-.013-2.12-.305-.72-.292-1.34-.894-1.87-1.806-.66-1.15-.81-2.319-.43-3.506.39-1.194 1.19-2.211 2.4-3.05l-.93-1.607 1.23-.711.93 1.606c1.29-.605 2.5-.789 3.61-.55 1.13.231 2.07.902 2.83 2.014l-2.91 1.679a2.012 2.012 0 0 0-.97-.758c-.39-.165-.8-.2-1.24-.104l2.16 3.749c1.11-.305 2.01-.498 2.7-.579.69-.101 1.4-.006 2.11.286.71.278 1.33.874 1.86 1.786Zm-10.62-2.017c.26.436.59.719 1.01.849.41.116.9.119 1.49.009l-1.98-3.431c-.42.333-.69.723-.79 1.169-.1.447-.01.915.27 1.404Zm7.35 6.414c.44-.374.7-.798.78-1.271.1-.48.02-.945-.24-1.395-.25-.436-.59-.709-1.01-.817-.42-.109-.93-.105-1.53.012l2 3.471Zm6.53-4.72-1.26-2.181.94-12.918 3.14-1.812 5.22 9.044 1.69-.978 1.4 2.419-1.7.979 1.63 2.816-2.7 1.556-1.62-2.816-6.74 3.891Zm2.01-12.479-.44 8.348 3.94-2.28-3.5-6.068Zm13.23 2.012c.44.522.93.838 1.47.948.55.089 1.13-.044 1.75-.4.8-.459 1.18-1.13 1.15-2.012-.04-.895-.52-2.149-1.45-3.762-.05.594-.28 1.165-.68 1.714-.39.542-.89.991-1.51 1.347-.82.474-1.67.732-2.53.774-.86.021-1.68-.201-2.47-.667-.79-.478-1.47-1.213-2.04-2.205-.85-1.467-1.09-2.875-.74-4.224.34-1.362 1.24-2.465 2.71-3.31 1.82-1.053 3.45-1.192 4.89-.419 1.45.766 2.88 2.359 4.27 4.778 1 1.719 1.66 3.213 2 4.48.35 1.261.34 2.379-.04 3.355-.37.969-1.15 1.802-2.36 2.499-.95.548-1.86.83-2.74.845-.89.002-1.69-.197-2.4-.598a5.541 5.541 0 0 1-1.78-1.698l2.5-1.445Zm-.02-4.749c.67-.385 1.07-.901 1.22-1.546.14-.645 0-1.325-.41-2.039-.45-.78-1-1.263-1.66-1.449-.65-.207-1.32-.11-2.01.29-.7.401-1.12.944-1.27 1.631-.15.666-.01 1.363.41 2.09.4.701.93 1.164 1.57 1.392.65.206 1.37.083 2.15-.369Z"/>
    </g>
  </g>
  <defs>
    <pattern id="f" width="1" height="1" patternContentUnits="objectBoundingBox">
      <use xlink:href="#j" transform="scale(.00195)"/>
    </pattern>
    <pattern id="g" width="1" height="1" patternContentUnits="objectBoundingBox">
      <use xlink:href="#j" transform="scale(.00195)"/>
    </pattern>
    <pattern id="i" width="1" height="1" patternContentUnits="objectBoundingBox">
      <use xlink:href="#j" transform="matrix(.00198 0 0 .00195 -.006 0)"/>
    </pattern>
    <clipPath id="b">
      <path fill="#fff" d="M0 0h260.5v547.717H0z" transform="rotate(-30 608.86 -1038.856)"/>
    </clipPath>
    <clipPath id="h">
      <path fill="#fff" d="M0 0h260.5v563.748H0z" transform="rotate(-30 849.471 -1685.577)"/>
    </clipPath>
    <filter id="c" width="179.899" height="179.973" x="631.151" y="175.515" color-interpolation-filters="sRGB" filterUnits="userSpaceOnUse">
      <feFlood flood-opacity="0" result="BackgroundImageFix"/>
      <feColorMatrix in="SourceAlpha" result="hardAlpha" values="0 0 0 0 0 0 0 0 0 0 0 0 0 0 0 0 0 0 127 0"/>
      <feOffset dy="16.031"/>
      <feGaussianBlur stdDeviation="23.378"/>
      <feComposite in2="hardAlpha" operator="out"/>
      <feColorMatrix values="0 0 0 0 0 0 0 0 0 0 0 0 0 0 0 0 0 0 0.1 0"/>
      <feBlend in2="BackgroundImageFix" result="effect1_dropShadow_492_2480"/>
      <feBlend in="SourceGraphic" in2="effect1_dropShadow_492_2480" result="shape"/>
    </filter>
    <filter id="d" width="305.896" height="267.713" x="663.186" y="159.546" color-interpolation-filters="sRGB" filterUnits="userSpaceOnUse">
      <feFlood flood-opacity="0" result="BackgroundImageFix"/>
      <feColorMatrix in="SourceAlpha" result="hardAlpha" values="0 0 0 0 0 0 0 0 0 0 0 0 0 0 0 0 0 0 127 0"/>
      <feOffset dy="16.031"/>
      <feGaussianBlur stdDeviation="23.378"/>
      <feComposite in2="hardAlpha" operator="out"/>
      <feColorMatrix values="0 0 0 0 0 0 0 0 0 0 0 0 0 0 0 0 0 0 0.1 0"/>
      <feBlend in2="BackgroundImageFix" result="effect1_dropShadow_492_2480"/>
      <feBlend in="SourceGraphic" in2="effect1_dropShadow_492_2480" result="shape"/>
    </filter>
    <linearGradient id="e" x1="751.162" x2="859.311" y1="335.568" y2="273.128" gradientUnits="userSpaceOnUse">
      <stop stop-color="#375EE0"/>
      <stop offset="1" stop-color="#A5DFDC"/>
    </linearGradient>
  </defs>
</svg>
